<svg id='2game' xmlns="http://www.w3.org/2000/svg" width="256" height="255.931" viewBox="0 0 256 255.931">
  <path id="2game" data-name="2game" d="M127.961,255.9A127.96,127.96,0,1,1,192.55,17.487L176.321,42.478l-.239-.141c-.416-.082-41.726-8.224-49.623-8.224a3.534,3.534,0,0,0-1.131.12c-3.16,1.264-22.3,19.118-22.5,19.3a2.508,2.508,0,0,0,.223,1.882,2.907,2.907,0,0,0,2.121,1.21,96.249,96.249,0,0,1,17.28-1.513c13.554,0,32.083,2.815,43.388,16.227a45.532,45.532,0,0,1,6.715,10.069,33.919,33.919,0,0,1,3.011,9.823,33.213,33.213,0,0,1-.042,9.472,41.313,41.313,0,0,1-2.446,9.034,69.557,69.557,0,0,1-9.495,16.352c-3.759,5-7.776,9.451-11.32,13.38-5.041,5.59-9.024,10.005-9.021,12.592h56.512c1.2-1.477,4.446-19.48,6.86-34.449,2.586-16.045,4.948-33.059,4.442-34.537-.971-2.874-23.44-33.96-23.666-34.272L203.2,24.458a127.983,127.983,0,0,1-25.431,221.39,127.144,127.144,0,0,1-49.81,10.055ZM115.935,87.569h0c-14.755,0-32.864,7.219-47.259,18.834-15.786,12.737-24.834,28.837-24.834,44.174,0,39.366,34.247,71.4,76.343,71.4,32.56,0,54.571-18.12,62.439-28.827,2.262-3.078,3.393-5.615,3.028-6.786-.229-2.015-7.135-2.994-21.116-2.994-5.526,0-11.353.141-16.38.283l-2.184.059c-4.342.119-8.09.221-10.783.221h-.7c-.848,0-1.721-.01-2.58-.01-7.284,0-13.714.233-19.585.486l-2.758.122h-.1c-4.383.194-8.157.362-11.18.362-5.114,0-7.647-.5-8.471-1.684a2.1,2.1,0,0,1-.09-2.02l1.523-28.017c17.2-12.158,29.661-23.244,37.041-32.956,5.7-7.5,8.351-14.15,7.89-19.756a12.966,12.966,0,0,0-3.506-7.955,11.955,11.955,0,0,0-3.048-2.371,34.52,34.52,0,0,0-13.682-2.556Z" transform="translate(0.036 0.028)" fill="#e0e0e0"/>
</svg>
