<svg xmlns="http://www.w3.org/2000/svg" width="256" height="256" viewBox="0 0 256 256">
  <g id="all_you_play" data-name="all you play" transform="translate(-8 -8)">
    <rect id="Rectángulo_1886" data-name="Rectángulo 1886" width="256" height="256" transform="translate(8 8)" fill="none"/>
    <g id="Grupo_1688" data-name="Grupo 1688" transform="translate(8 42)">
      <g id="Grupo_1685" data-name="Grupo 1685">
        <path id="Trazado_8117" data-name="Trazado 8117" d="M421.959,229.719a8.243,8.243,0,0,1,4.254.425,5.849,5.849,0,0,1,2.606,2.34,10.131,10.131,0,0,1,1.17,3.829,25.56,25.56,0,0,1,0,4.946,48.268,48.268,0,0,1-.9,5.69c-.425,1.968-.957,3.988-1.6,6.009a64.364,64.364,0,0,1-3.829,9.678,39.842,39.842,0,0,1-4.839,7.711,23.572,23.572,0,0,1-5.69,5.211,14.406,14.406,0,0,1-6.328,2.233c-2.393.16-4.2-.372-5.424-1.648a9.469,9.469,0,0,1-2.34-5.371,28.259,28.259,0,0,1,.266-8.083,57.588,57.588,0,0,1,2.446-9.572,64.49,64.49,0,0,1,3.669-8.881,42.638,42.638,0,0,1,4.573-7.179,23.122,23.122,0,0,1,5.53-5A14.533,14.533,0,0,1,421.959,229.719Zm-14.571,40.84a22.032,22.032,0,0,0-.9,3.4,4.541,4.541,0,0,0,.053,1.968c.16.425.372.585.745.532a2.874,2.874,0,0,0,1.223-1.064h0a17.451,17.451,0,0,0,1.648-3.669l11.965-35.523a9.1,9.1,0,0,0,.479-1.6c.106-.479.213-1.01.319-1.489h0a3.208,3.208,0,0,0-.266-1.808c-.213-.319-.532-.372-.957-.106a5.232,5.232,0,0,0-1.329,1.755,17.324,17.324,0,0,0-1.489,3.722Z" transform="translate(-254.644 -213.907)" fill="#e0e0e0"/>
        <path id="Trazado_8118" data-name="Trazado 8118" d="M471.056,267.456a3.507,3.507,0,0,1-3.935-1.542c-.8-1.329-1.064-3.3-.851-5.85h0a22.6,22.6,0,0,1-3.935,6.647,9.345,9.345,0,0,1-5.105,2.978,3.408,3.408,0,0,1-3.137-.532,5.468,5.468,0,0,1-1.542-3.137,15.809,15.809,0,0,1,.106-5.211,40.193,40.193,0,0,1,1.7-6.86l6.115-18.772c.053-.213.159-.532.319-1.01s.319-1.064.479-1.7.319-1.329.425-2.021a13.847,13.847,0,0,0,.266-2.074,6.107,6.107,0,0,0-.106-1.755,2.2,2.2,0,0,0-.532-1.117h0l2.233-.372a5.618,5.618,0,0,1,3.35.266,4.395,4.395,0,0,1,1.968,1.7,7.042,7.042,0,0,1,.8,2.765,14.692,14.692,0,0,1-.053,3.4,21.867,21.867,0,0,1-.638,3.563c-.319,1.17-.585,2.287-.957,3.3l-5.9,18.612c-.16.479-.319,1.064-.532,1.755a16.743,16.743,0,0,0-.479,1.914,4.809,4.809,0,0,0-.053,1.489c.053.425.266.585.691.532.532-.053,1.063-.532,1.648-1.436a25.522,25.522,0,0,0,1.755-3.244c.585-1.276,1.117-2.659,1.648-4.095.532-1.489,1.01-2.818,1.383-4.042l6.275-18.665c.053-.213.16-.532.319-1.01s.319-1.064.479-1.7.319-1.329.479-2.021a9.242,9.242,0,0,0,.266-2.074,6.239,6.239,0,0,0-.106-1.755,2.243,2.243,0,0,0-.585-1.117h0l2.233-.372a5.618,5.618,0,0,1,3.35.266,3.97,3.97,0,0,1,1.968,1.755,6.5,6.5,0,0,1,.851,2.765,14.689,14.689,0,0,1-.053,3.4,27.628,27.628,0,0,1-.585,3.563c-.266,1.17-.585,2.287-.9,3.3l-6.222,18.772a27.465,27.465,0,0,0-1.064,4.095c-.106.851-.053,1.276.266,1.329a1.806,1.806,0,0,0,.957-.266,9.028,9.028,0,0,0,1.808-1.17,14.92,14.92,0,0,0,2.287-2.446,22.258,22.258,0,0,0,2.553-4.042h0a27.62,27.62,0,0,1-2.765,6.488,18.951,18.951,0,0,1-3.3,4.042,11.468,11.468,0,0,1-3.191,2.127C472.545,267.084,471.747,267.349,471.056,267.456Z" transform="translate(-279.704 -210.697)" fill="#e0e0e0"/>
        <path id="Trazado_8119" data-name="Trazado 8119" d="M369.482,204.764a6.291,6.291,0,0,0-1.17-2.712,4.522,4.522,0,0,0-2.18-1.649,6.577,6.577,0,0,0-3.457-.213l-2.233.372h0a2.45,2.45,0,0,1,.691,1.914,20.585,20.585,0,0,1-.266,2.978c-.213,1.064-.425,2.021-.691,2.978-.266.9-.479,1.542-.585,1.808l-1.01,3.084c-.691,1.968-1.542,4.148-2.5,6.541s-1.914,4.839-2.978,7.285-2.074,4.839-3.137,7.126-2.021,4.361-2.978,6.169-1.755,3.244-2.5,4.361-1.329,1.648-1.755,1.7a.684.684,0,0,1-.638-.213,2.047,2.047,0,0,1-.319-1.01,11.286,11.286,0,0,1,.213-2.021,29.22,29.22,0,0,1,.9-3.244l5.69-17.708c.479-1.436.851-3.031,1.223-4.68a26.27,26.27,0,0,0,.638-4.892,20.823,20.823,0,0,0-.319-4.52,7.623,7.623,0,0,0-1.7-3.616,7.285,7.285,0,0,0-3.457-2.074,13.4,13.4,0,0,0-5.637.053,16.3,16.3,0,0,0-3.722,1.276,25.279,25.279,0,0,0-4.307,2.393,43.377,43.377,0,0,0-4.52,3.616,32.429,32.429,0,0,0-7.6,10.955,31.987,31.987,0,0,0-2.233,7.445,17.64,17.64,0,0,0-.053,7.285,6.3,6.3,0,0,0,7.126,5.265,15.223,15.223,0,0,0,6.115-1.914h0a5.841,5.841,0,0,1-2.287-2.872,13.162,13.162,0,0,1-.8-4.254,24.794,24.794,0,0,1,.425-5.105,45.038,45.038,0,0,1,1.489-5.53,40.015,40.015,0,0,1,2.34-5.371,39.037,39.037,0,0,1,2.872-4.68,21.241,21.241,0,0,1,3.244-3.563,9.643,9.643,0,0,1,3.4-1.914c.9-.213,1.436-.053,1.7.532a4.452,4.452,0,0,1,.16,2.446,17.509,17.509,0,0,1-.8,3.563c-.372,1.329-.8,2.606-1.223,3.829-1.17,3.457-2.127,6.381-2.925,8.721s-1.436,4.254-1.914,5.743-.851,2.606-1.117,3.35-.425,1.329-.532,1.648a1.958,1.958,0,0,1-.213.532.052.052,0,0,0-.053.053,2.088,2.088,0,0,1-.106.319,8.717,8.717,0,0,1-.425,1.17h0a31.091,31.091,0,0,0-.8,3.191,24.225,24.225,0,0,0-.532,3.244,13.915,13.915,0,0,0,0,2.978,5.781,5.781,0,0,0,.8,2.446c1.383,2.074,3.722,2.872,6.966,2.393a4.839,4.839,0,0,0,2.446-1.223,15.1,15.1,0,0,0,2.446-2.659,30.031,30.031,0,0,0,2.393-3.722c.8-1.383,1.542-2.765,2.287-4.254h0q-1.755,5.105-3.669,10.051c-1.276,3.35-2.5,6.541-3.722,9.572s-2.446,5.85-3.669,8.455c-.479,1.01-.9,1.914-1.329,2.818h0c0,.638-.053,1.276-.106,1.968a39.864,39.864,0,0,1-.8,4.839c-.372,1.648-.8,3.137-1.223,4.467l-.479,1.436h0a17.845,17.845,0,0,0,3.244-1.808,24.73,24.73,0,0,0,5.9-6.062,62.81,62.81,0,0,0,5.53-9.466c1.808-3.722,3.722-8.136,5.69-13.135s4.042-10.689,6.275-17.07,4.68-13.454,7.392-21.271a27.056,27.056,0,0,0,.851-3.3,27.436,27.436,0,0,0,.425-3.51A10.412,10.412,0,0,0,369.482,204.764Z" transform="translate(-216.099 -200.066)" fill="#e0e0e0"/>
        <g id="Grupo_1683" data-name="Grupo 1683" transform="translate(60.162 6.32)">
          <path id="Trazado_8120" data-name="Trazado 8120" d="M289.055,314.558h0l.638-1.117a25.3,25.3,0,0,0,2.287-6.541h0a24.312,24.312,0,0,1-2.233,4.148,14.361,14.361,0,0,1-2.127,2.606,1.409,1.409,0,0,1-.319.266c0,.053,0,.053.053.106A15.907,15.907,0,0,1,289.055,314.558Z" transform="translate(-262.572 -256.408)" fill="#e0e0e0"/>
          <path id="Trazado_8121" data-name="Trazado 8121" d="M286.469,216.443a6.321,6.321,0,0,0-1.01-2.659,4.392,4.392,0,0,0-2.074-1.6,6.106,6.106,0,0,0-3.4,0l-2.233.479h0a2.279,2.279,0,0,1,.8,1.861,14.319,14.319,0,0,1-.106,2.978,23.259,23.259,0,0,1-.479,2.978c-.213.957-.372,1.542-.425,1.861L267.7,261.06c-.319,1.383-.638,2.659-.8,3.882h0a24.987,24.987,0,0,1,3.776.744,18.369,18.369,0,0,1,4.626,1.968h0c.106-.638.319-1.436.532-2.34l9.731-38.554c.266-1.01.479-2.127.691-3.35a27.789,27.789,0,0,0,.372-3.616A17.276,17.276,0,0,0,286.469,216.443Z" transform="translate(-253.021 -211.95)" fill="#e0e0e0"/>
          <path id="Trazado_8122" data-name="Trazado 8122" d="M250.266,267.538h0l8.774-34.778c.266-1.01.479-2.127.691-3.35a27.79,27.79,0,0,0,.372-3.616,13.847,13.847,0,0,0-.213-3.35,6.322,6.322,0,0,0-1.01-2.659,4.391,4.391,0,0,0-2.074-1.6,6.105,6.105,0,0,0-3.4,0l-2.233.479h0a2.279,2.279,0,0,1,.8,1.861,14.327,14.327,0,0,1-.106,2.978,23.278,23.278,0,0,1-.479,2.978c-.213.957-.372,1.542-.425,1.861l-9.838,38.713c-.106.479-.213.957-.319,1.383h0a47.155,47.155,0,0,1,7.711-.9Z" transform="translate(-240.8 -214.759)" fill="#e0e0e0"/>
        </g>
        <g id="Grupo_1684" data-name="Grupo 1684" transform="translate(0 3.953)">
          <path id="Trazado_8123" data-name="Trazado 8123" d="M137.841,290.4a16.2,16.2,0,0,0,6.381-2.5,26.064,26.064,0,0,0,5.477-4.892,47.537,47.537,0,0,0,4.786-6.754c1.489-2.553,2.925-5.265,4.254-8.136,1.383-2.872,2.659-5.9,3.935-9.04s2.553-6.275,3.882-9.466h0A13.935,13.935,0,0,1,168.1,252.7a19.511,19.511,0,0,1,.957,3.563,30.117,30.117,0,0,1,.425,3.829,29.568,29.568,0,0,1-.106,3.776h0c-.372,2.234-.638,4.361-.8,6.328h0a64.507,64.507,0,0,1,12.975-5.105h0c.16-.638.266-1.276.425-1.914.638-2.765,1.383-5.85,2.233-9.306.851-3.4,1.808-7.073,2.872-10.955,1.01-3.882,2.127-7.817,3.244-11.859s2.34-8.03,3.563-12.071c1.223-3.988,2.5-7.817,3.776-11.486h0a18.4,18.4,0,0,0-6.7,1.755,29.267,29.267,0,0,0-6.115,4.095,49.121,49.121,0,0,0-5.584,5.85,75.754,75.754,0,0,0-5.105,7.232c-1.649,2.553-3.191,5.265-4.68,8.083s-2.925,5.637-4.307,8.455c-1.649,3.4-5.052,10.316-6.594,13.454s-3.084,5.956-4.573,8.4a44.663,44.663,0,0,1-4.361,6.115,8.432,8.432,0,0,1-4.361,2.872,3.945,3.945,0,0,1-2.233,0,2.984,2.984,0,0,1-1.489-1.064,4.593,4.593,0,0,1-.8-1.861,8.836,8.836,0,0,1-.106-2.393c.266-3.031,1.648-5.8,5.318-8.668h0a19.845,19.845,0,0,0-6.115.691,19.578,19.578,0,0,0-7.073,3.3,18,18,0,0,0-2.818,2.872h0c-.851,1.436-1.489,5.371-1.914,8.189a30.761,30.761,0,0,0-.319,6.86,13.374,13.374,0,0,0,1.383,5.211,6.531,6.531,0,0,0,3.244,3.084A10.239,10.239,0,0,0,137.841,290.4Zm33.768-52.486c1.276-2.818,2.606-5.53,4.042-8.03a61.906,61.906,0,0,1,4.52-7.073,36,36,0,0,1,5.158-5.743h0c-1.223,2.34-2.553,5.105-3.935,8.3s-2.712,6.541-3.988,10.1c-1.329,3.563-2.553,7.232-3.722,11.008s-2.127,7.392-2.978,10.955h0a29.13,29.13,0,0,0-.9-5.956,22.85,22.85,0,0,0-1.968-4.945h0C169.056,243.608,170.332,240.736,171.608,237.918Z" transform="translate(-127.665 -207.5)" fill="#e0e0e0"/>
        </g>
      </g>
      <g id="Grupo_1687" data-name="Grupo 1687" transform="translate(3.346 48.886)">
        <path id="Trazado_8124" data-name="Trazado 8124" d="M168.492,363.5a25.424,25.424,0,0,0,.8-3.4c.319-1.7.585-3.563.8-5.477a26.543,26.543,0,0,0,.053-5.424,4.552,4.552,0,0,0-1.489-3.4,13.237,13.237,0,0,1,1.7-.213c.213,0,.266-.053.213,0l2.074-.532a11.454,11.454,0,0,1,6.222.213,8.879,8.879,0,0,1,4.148,2.872,13.5,13.5,0,0,1,2.393,4.786,26.785,26.785,0,0,1,.957,6.009,43.532,43.532,0,0,1-.16,6.435,42.327,42.327,0,0,1-1.064,6.062l-5.318,23.026a19.5,19.5,0,0,0,6.381-4.839,46.448,46.448,0,0,0,5.743-8.189,73.013,73.013,0,0,0,4.68-10.263,77.094,77.094,0,0,0,3.137-11.114,53.9,53.9,0,0,0,1.117-10.582,26.127,26.127,0,0,0-1.329-8.828,11.859,11.859,0,0,0-4.307-5.85,10.96,10.96,0,0,0-7.764-1.542,28.063,28.063,0,0,0-11.38,3.829,37.014,37.014,0,0,0-10.21,8.828,53.177,53.177,0,0,0-7.817,13.348,60.045,60.045,0,0,0-4.2,17.336,39.014,39.014,0,0,0-.16,9.253,31.535,31.535,0,0,0,1.489,6.7,14.03,14.03,0,0,0,1.968,3.935c.691.851,1.117,1.17,1.383,1.01a19.573,19.573,0,0,1-9.519,4.839,12.758,12.758,0,0,1-8.189-1.17,12.542,12.542,0,0,1-5.424-6.009,18.2,18.2,0,0,1-1.329-9.625,53.8,53.8,0,0,1,4.839-19.038,71.262,71.262,0,0,1,11.114-17.336,74.612,74.612,0,0,1,15.847-13.826,65.516,65.516,0,0,1,19.2-8.615,63.918,63.918,0,0,1,13.348-2.233,31.634,31.634,0,0,1,9.944,1.01,17.747,17.747,0,0,1,6.913,3.563,17.281,17.281,0,0,1,4.361,5.477,21.808,21.808,0,0,1,2.127,6.754,33.66,33.66,0,0,1,.319,7.339,57.179,57.179,0,0,1-3.031,15.209,63.115,63.115,0,0,1-6.222,12.922,56.12,56.12,0,0,1-8.349,10.37,55.333,55.333,0,0,1-9.306,7.5,38.78,38.78,0,0,1-9.093,4.467,19.452,19.452,0,0,1-7.711,1.17L171.789,427.9c-.106.585-.372,1.755-.691,3.456a53.055,53.055,0,0,0-.8,5.424,30.977,30.977,0,0,0-.053,5.424,4.23,4.23,0,0,0,1.436,3.35c-1.01.213-1.649.372-1.808.372-.213.053-.266.053-.213.053l-1.861.479a11.452,11.452,0,0,1-6.222-.213,9.417,9.417,0,0,1-4.2-2.925,13,13,0,0,1-2.446-4.839,27.8,27.8,0,0,1-.957-6.009,42.206,42.206,0,0,1,1.223-12.444Z" transform="translate(-133.956 -307.183)" fill="#e0e0e0"/>
        <path id="Trazado_8125" data-name="Trazado 8125" d="M302.3,408.422c-.053,1.542.16,2.287.691,2.34a3.45,3.45,0,0,0,1.755-.638,14.788,14.788,0,0,0,3.031-2.446,29.2,29.2,0,0,0,3.616-4.839,41.511,41.511,0,0,0,3.722-7.817,41.011,41.011,0,0,1-3.669,12.071,34.771,34.771,0,0,1-5.158,7.87,22.1,22.1,0,0,1-5.318,4.52,18.993,18.993,0,0,1-4.414,1.914,6.714,6.714,0,0,1-5.743-.585,8.988,8.988,0,0,1-3.3-5.211,29.759,29.759,0,0,1-.851-9.253,82.9,82.9,0,0,1,1.7-12.6l15-70.62c.16-.532.372-1.7.691-3.4a53.817,53.817,0,0,0,.691-5.424,29.916,29.916,0,0,0-.053-5.371,4.378,4.378,0,0,0-1.6-3.35l3.988-1.064a11.037,11.037,0,0,1,6.115-.213,7.523,7.523,0,0,1,3.882,2.712A11.547,11.547,0,0,1,319.1,311.8a31.268,31.268,0,0,1,.585,6.062,55.445,55.445,0,0,1-.425,6.541,58.674,58.674,0,0,1-1.01,6.115l-14.783,70.354A49.929,49.929,0,0,0,302.3,408.422Z" transform="translate(-205.439 -297.597)" fill="#e0e0e0"/>
        <path id="Trazado_8126" data-name="Trazado 8126" d="M372.738,426.581c-3.35.957-5.85.16-7.6-2.287-1.7-2.5-2.5-6.328-2.446-11.54a69.073,69.073,0,0,1-2.765,7.445,44.351,44.351,0,0,1-3.457,6.541,24.3,24.3,0,0,1-4.148,4.946,12.1,12.1,0,0,1-4.892,2.712,5.014,5.014,0,0,1-4.573-.532,9.127,9.127,0,0,1-2.978-4.095,25.94,25.94,0,0,1-1.6-6.647,67.43,67.43,0,0,1-.479-8.243c0-2.925.106-5.9.372-8.934.266-3.084.585-5.956,1.01-8.668.479-3.031,1.17-6.328,1.968-9.891s1.808-7.126,2.925-10.689a110.556,110.556,0,0,1,3.882-10.423,69.8,69.8,0,0,1,4.786-9.147,35.077,35.077,0,0,1,5.584-6.807,14.03,14.03,0,0,1,6.381-3.457,5.593,5.593,0,0,1,3.669.372,5.683,5.683,0,0,1,2.5,2.393,14.424,14.424,0,0,1,1.542,3.882,27.113,27.113,0,0,1,.744,4.839c.16-1.117.266-2.34.425-3.616a28.417,28.417,0,0,0,.053-3.669,11.924,11.924,0,0,0-.532-3.031,3.265,3.265,0,0,0-1.276-1.861l3.988-1.064a11.038,11.038,0,0,1,6.116-.213,7.842,7.842,0,0,1,3.882,2.712,12.187,12.187,0,0,1,2.021,4.786,31.684,31.684,0,0,1,.585,6.062A45.035,45.035,0,0,1,388,365c-.266,2.18-.638,4.2-1.01,6.062L379.438,406a48.975,48.975,0,0,0-1.17,7.551c-.053,1.542.16,2.287.691,2.34a3.322,3.322,0,0,0,1.7-.638,13.4,13.4,0,0,0,2.978-2.446,35.392,35.392,0,0,0,3.669-4.839,43.536,43.536,0,0,0,3.829-7.87,45.657,45.657,0,0,1-3.829,12.178A37.12,37.12,0,0,1,382.2,420.2a20.626,20.626,0,0,1-5.318,4.467A16.343,16.343,0,0,1,372.738,426.581Zm-9.093-23.558c.106-.638.213-1.329.372-1.968s.319-1.383.532-2.127l7.392-33.342a18.48,18.48,0,0,0,.053-6.435q-.558-2.154-1.6-2.074c-.745.053-1.542.957-2.446,2.712a32.014,32.014,0,0,0-2.446,7.923L356.625,407.6a32.474,32.474,0,0,0-.9,7.445c.106,1.755.425,2.818,1.064,3.084q.877.479,2.233-1.276a20.919,20.919,0,0,0,2.659-5.743,34.429,34.429,0,0,0,1.383-5.052C363.325,404.512,363.538,403.5,363.644,403.023Z" transform="translate(-229.401 -316.607)" fill="#e0e0e0"/>
        <path id="Trazado_8127" data-name="Trazado 8127" d="M440.162,390.486a33.324,33.324,0,0,0-.532,3.51,7.311,7.311,0,0,0,.16,2.712c.213.744.638,1.01,1.329.8q1.356-.4,2.712-2.872a40.289,40.289,0,0,0,2.5-6.115c.8-2.393,1.489-5,2.18-7.711.691-2.765,1.223-5.265,1.7-7.551l7.6-34.778c.053-.372.213-1.01.372-1.914.213-.9.372-1.968.532-3.137s.319-2.446.479-3.776a30.4,30.4,0,0,0,.106-3.776,13.417,13.417,0,0,0-.479-3.137,2.815,2.815,0,0,0-1.329-1.861l3.988-1.064a11.038,11.038,0,0,1,6.115-.213,7.473,7.473,0,0,1,3.829,2.712,13.023,13.023,0,0,1,2.021,4.786,36.514,36.514,0,0,1,.638,6.062,39,39,0,0,1-.425,6.541c-.319,2.18-.638,4.2-1.01,6.062l-8.987,43.712q-.877,4.626-2.074,9.891c-.8,3.51-1.7,7.02-2.818,10.582a96.287,96.287,0,0,1-3.988,10.476,49.685,49.685,0,0,1-5.584,9.519,40.456,40.456,0,0,1-7.6,7.764,31.1,31.1,0,0,1-10.051,5.211,37.916,37.916,0,0,1-7.658,1.6,14.786,14.786,0,0,1-5.265-.372,7.332,7.332,0,0,1-3.35-1.914,8.809,8.809,0,0,1-1.808-2.818,9.325,9.325,0,0,1-.745-3.191,18.3,18.3,0,0,1-.053-2.925,25.147,25.147,0,0,1,2.127-7.445,21.181,21.181,0,0,1,3.4-5.158c1.276-1.383,6.807-6.328,8.136-7.392,1.755-1.489-1.01,2.659.425,2.127a34.606,34.606,0,0,1,3.935-1.117c1.223-.213,2.234-.479,3.084-.691a27.153,27.153,0,0,0-4.626,6.328,29.625,29.625,0,0,0-2.5,6.435,21.385,21.385,0,0,0-.745,5.9,15.141,15.141,0,0,0,.8,4.733,5.938,5.938,0,0,0,2.074,2.872,3.267,3.267,0,0,0,2.978.425c1.6-.532,3.031-2.18,4.2-4.839a61.454,61.454,0,0,0,3.191-9.732c.957-3.829,1.861-7.977,2.712-12.5s1.7-8.934,2.659-13.241l.425-2.34c-2.765,5.371-6.381,8.721-10.9,10.157-2.34.8-4.307.691-5.8-.372a9.613,9.613,0,0,1-3.35-5.318,27.644,27.644,0,0,1-.8-9.359,82.412,82.412,0,0,1,1.7-12.709l7.392-34.885c.053-.372.213-1.01.372-1.914.213-.9.372-1.968.532-3.137s.319-2.446.425-3.722a29.389,29.389,0,0,0,.053-3.722,13.417,13.417,0,0,0-.479-3.137,3.434,3.434,0,0,0-1.223-1.914l3.988-1.064a11.037,11.037,0,0,1,6.115-.213,7.7,7.7,0,0,1,3.829,2.712,12.29,12.29,0,0,1,2.021,4.786,31.684,31.684,0,0,1,.585,6.062,44.934,44.934,0,0,1-.479,6.488c-.319,2.18-.638,4.2-1.064,6.115l-7.019,34.619C440.641,388.093,440.428,389.21,440.162,390.486Z" transform="translate(-264.44 -304.761)" fill="#e0e0e0"/>
        <g id="Grupo_1686" data-name="Grupo 1686" transform="translate(153.625)">
          <path id="Trazado_8128" data-name="Trazado 8128" d="M428.618,417.125a47.891,47.891,0,0,1,5.265-5.637c.957-.851,1.914-1.7,2.925-2.5.425-.372.9-.691,1.383-1.064a9.094,9.094,0,0,0,.745-.585c.053,0,1.064-.744.372-.266a117.01,117.01,0,0,1,13.454-7.87c9.519-4.892,19.2-9.306,27.918-15.634,16.91-12.231,29.46-30.258,36-49.987a101.289,101.289,0,0,0,5.105-36.054c-.106-2.127-1.276-5.637-3.988-5.53-2.659.106-3.563,3.722-3.51,5.85.053,1.276.106,2.552.106,3.829v1.542a8.194,8.194,0,0,1-.053,2.287c.053-.053.106-1.436,0-.372,0,.319-.053.638-.053.957-.053.585-.106,1.17-.106,1.7-.106,1.276-.266,2.553-.425,3.829-.319,2.553-.745,5.052-1.276,7.551-.053.266-.106.479-.16.744,0,.106-.319,1.329-.106.425s-.106.372-.106.425c-.053.266-.106.479-.16.745-.319,1.276-.691,2.606-1.064,3.882-.691,2.393-1.542,4.733-2.393,7.073l-1.276,3.191a12.38,12.38,0,0,1-.745,1.755c.585-.9.106-.266,0,.053-.159.372-.319.691-.479,1.064a103.728,103.728,0,0,1-7.551,13.135c-.638.957-1.33,1.861-2.021,2.818-.372.532-.745,1.01-1.17,1.542-.106.16-.532.691,0,0-.213.319-.479.585-.691.9-1.6,1.968-3.3,3.935-5.052,5.743a90.319,90.319,0,0,1-11.114,10c-.479.372-.9.691-1.383,1.01-.266.213-.532.372-.8.585-.106.053-.638.425-.053.053-1.064.744-2.127,1.436-3.191,2.127-2.18,1.383-4.467,2.712-6.753,3.935-4.52,2.446-9.147,4.68-13.72,7.019-10.263,5.211-20.686,11.061-27.971,20.208a7.562,7.562,0,0,0-1.01,7.817c.745,1.6,3.3,3.988,5.105,1.7Z" transform="translate(-422.846 -291.996)" fill="#e0e0e0"/>
        </g>
      </g>
    </g>
  </g>
</svg>
