<svg id="behance" xmlns="http://www.w3.org/2000/svg" width="20" height="20" viewBox="0 0 20 20">
  <circle id="background" cx="10" cy="10" r="10" fill="#1769ff"/>
  <path id="behance-2" data-name="behance" d="M354.265,683.6a5.665,5.665,0,0,1,1.181.114,2.536,2.536,0,0,1,.914.374,1.747,1.747,0,0,1,.59.692,2.427,2.427,0,0,1,.21,1.066,1.987,1.987,0,0,1-.311,1.142,2.258,2.258,0,0,1-.92.749,2.181,2.181,0,0,1,1.25.844,2.771,2.771,0,0,1,.146,2.641,2.3,2.3,0,0,1-.718.818,3.17,3.17,0,0,1-1.028.47,4.643,4.643,0,0,1-1.186.152H350V683.6Zm-.254,3.668a1.437,1.437,0,0,0,.876-.254.956.956,0,0,0,.342-.825,1.054,1.054,0,0,0-.114-.52.843.843,0,0,0-.3-.318,1.289,1.289,0,0,0-.438-.158,2.919,2.919,0,0,0-.514-.044h-1.865v2.12Zm.114,3.846a2.668,2.668,0,0,0,.558-.057,1.378,1.378,0,0,0,.47-.19.965.965,0,0,0,.324-.362,1.25,1.25,0,0,0,.121-.584,1.171,1.171,0,0,0-.394-1,1.678,1.678,0,0,0-1.041-.3h-2.17v2.488Zm5.973-.19a1.848,1.848,0,0,0,2.107.121,1.13,1.13,0,0,0,.482-.578h1.586a3.008,3.008,0,0,1-1.168,1.688,3.438,3.438,0,0,1-1.9.508,3.751,3.751,0,0,1-1.4-.247,2.9,2.9,0,0,1-1.054-.7,3.156,3.156,0,0,1-.666-1.091,4.009,4.009,0,0,1-.234-1.4,3.826,3.826,0,0,1,.241-1.37,3.173,3.173,0,0,1,1.746-1.827,3.4,3.4,0,0,1,1.365-.266,3.121,3.121,0,0,1,1.46.324,2.913,2.913,0,0,1,1.022.87,3.574,3.574,0,0,1,.578,1.244,4.643,4.643,0,0,1,.127,1.46h-4.734A1.816,1.816,0,0,0,360.1,690.923Zm2.038-3.452a1.267,1.267,0,0,0-.984-.355,1.57,1.57,0,0,0-.717.146,1.368,1.368,0,0,0-.457.362,1.32,1.32,0,0,0-.241.457,2.052,2.052,0,0,0-.082.431h2.932A2.1,2.1,0,0,0,362.136,687.471Zm-2.79-3.411h3.663v1.016h-3.663Z" transform="translate(-347.2 -678.131)" fill="#fff"/>
</svg>
