<svg xmlns="http://www.w3.org/2000/svg" width="256" height="256" viewBox="0 0 256 256">
  <g id="Blizzard" transform="translate(-7789 -3371)">
    <rect id="Rectángulo_1889" data-name="Rectángulo 1889" width="256" height="256" transform="translate(7789 3371)" fill="none"/>
    <path id="path2894" d="M673.559,1030.214s.537,2.362,1.864,1.472,1.864-2.221,3.183-2.221,6.836-1.036,8.164,0,1.456.148,2.113.148a25.618,25.618,0,0,1,2.61.345c1.692-.176,1.347-2.866.124-3.653-1.765-1.382-4.141-2.271-5.906-3.654q-.266-2-.53-4l1.456-2.075v-6.665l-.794-1.777q-.133-2.518-.265-5.036l-.661-.889v-1.925c.441-.641,1.335-1.284,1.776-1.925.132-1.234-.46-2.105-.327-3.34-.31-1.58-.347-3.524-.655-5.1v-5.777c1.28-.382,1.59-.95,1.682-1.523a12.219,12.219,0,0,0-.621-3.366c-.177-9.234-.262-18.831-.439-28.064.7-1.1,1.547-1.674,1.566-2.486.014-.636-.67-1.167-1.524-1.885v-1.925s1.456-2.963,2.646-2.963a1.891,1.891,0,0,0,1.989-1.777,1.474,1.474,0,0,0-1.191-2.37c-2.521-.052-5.377.077-7.831.025-2.169-.046-3.95-.275-6.061-.321l-2.779.148c-2.277.691-1.8,1.928-.926,2.619A6.4,6.4,0,0,0,675.4,941.7a3.019,3.019,0,0,1,3.177,2q.2,8.888.4,17.774c.045,4.37.179,8.74.222,13.109s0,8.74.042,13.109q.132,7.706.265,15.406a7.529,7.529,0,0,1-.661,2.37c-.4.444-.265,4.3-.265,4.3,1.465,1.276,1.155,1.1.133,2.815q-.133,5.7-.265,11.405l-1.059,2.074S673.559,1028.287,673.559,1030.214Zm-64.087,18.408c-1.963-.4-2.331-1.354-1.633-1.913.419-.336,1.536-.323,2.04-.558a5.609,5.609,0,0,0,1.93-1.349c.757-.937.3-3.107,1.2-4.874.87-7.458,1.129-17.334.261-20.658-.521-5.121.014-22.133.014-24.288a4.136,4.136,0,0,0,.8-2.936c0-.71.479-1.813-.03-2.691-.737-.841-.515-4.134-.572-5.99a10.807,10.807,0,0,1,.886-5.241,4.454,4.454,0,0,0,0-2.964c-.621-1.459-1.531.226-1.472-2.7.148-7.11.413-14.263.226-21.37.041-.634,1.095-.746,1.3-1.347a3.318,3.318,0,0,0,0-2.425c-.2-.41-1.3.124-1.631-.188-1.989-1.9-4.481-3.09-5.632-5.62a3.566,3.566,0,0,1,1.219-3.625c1.566-.778,4.474.026,6.193-.27.922-.159,1.505-.707,2.439-.746,7.282-.321,14.776-1.049,22.032-.329,1.162.116,1.545,2.164,2.6,2.674,1.452.7,3.573.548,4.686,1.74,1.784,1.907,3.063,3.48,3.289,6.121.277,3.244.835,6.918.808,9.41a12.688,12.688,0,0,1-1.581,5.765,72.233,72.233,0,0,1-4.433,7.185c-.947,1.4-2.633,2.7-3.029,4.3-.41,1.651,3.853.439,4.723,1.884.839,1.39-.716,3.018-.249,4.584.419,1.4,2.838,1.533,3.123,2.964.746,3.7-.894,7.6-.26,11.319.2,1.19,2.091,1.232,2.273,2.425.223,2.579.143,5.309.163,8.048.021,2.916.134,5.842.1,8.617-.072,1.045-1.439,1.656-1.562,2.695-.326,2.766.621,5.89.014,8.6-.644,2.859-2.941,4.874-3.836,7.656-.776,2.41-.556,5.93-1.808,7.44a24.018,24.018,0,0,0-6.281,3.323c-2.384,1.774-3.908,3.806-4.641,3.871-.931.829-2.9.275-4.056.706-1.065.4-1.165,1.289-2.288,1.144-.886-.113-.61-.85-1.3-1.434a1.285,1.285,0,0,0-1.562,0c-2.337,1.88-.594,1.388-3.248,1.144-2.7-.249-7.942.583-11.224-.089Zm15.1-10.813,1.822-3.5q-.261-5.792-.521-11.588l1.562-2.156v-11.672c0-1.769-.249-3.537-.249-5.306-1.827-1.511-.953-1.492.521-3.232,0-1.707.411-3.084.411-4.79q-.261-2.155-.521-4.312l.781-2.156c0-2.161.249-3.91.249-6.072,0-2.03.058-2.71.43-2.583a20.661,20.661,0,0,1,2.3,2.262l2.848,2.734c1.753,1.684,3.46,1.838,2.749,4.6-.664,2.583,1.243,3.3.651,5.862-.454,1.958-1.049,3.155-.917,4.368a4.309,4.309,0,0,0,1.209,2.37c.73.839.973.787.537,1.82a13.249,13.249,0,0,0-1.32,3.494c-.087,1.234.585,1.8,1.175,3.978a8.285,8.285,0,0,1-.009,4.754l-1.586,6.365c-.06,1.6-.205,3.211-.319,4.818-.173,2.447-.5,2.51-2.2,4.258-1.546,1.59-3.535,2.948-5.026,4.369-1.648.629-2.931.687-4.58,1.316Zm3.977-68.093a7.961,7.961,0,0,0,2.321,0c.41-.169.639-.638,1.235-1.8.772-1.5,1.914-3.371,2.859-3.511a21.216,21.216,0,0,0,2.43-.475s.835-.158.549-2.217-.87-4.04-.356-4.6a2.59,2.59,0,0,0,.076-2.772c-.552-.634-1.076-1.268-.185-2.138s1.506-2.329-.621-2.092-2.1-.685-2.35-1.319-2.57-.489-3.786-.558c-1.214.237-2.237.159-2.2,1.426s-.169,7.376-.152,8.008.18,12.044.18,12.044Zm67.407,55.6c-.094.538-1.331.542-1.236,1.081.133.753.183,1.93.941,2.029,2.2.286,5.22-.59,7.4-.188.863.159.909,1.63,1.7,2.009.649-.011,1.649.012,2.472,0,.634-.329.464-1.492,1.081-1.853a3.245,3.245,0,0,1,2.626-.31c.445.164-.163,1.335.309,1.391,3.853-.145,7.291.276,10.938,0,.727-.124-.014-1.161.583-1.593.677-.5,2.362.367,2.472-.464.592-4.291-.332-9.082.071-13.394.124-1.381,1.453-2.2,1.75-3.554.1-.451.64-.459.682-.9a15.2,15.2,0,0,0-.268-4.948,3.258,3.258,0,0,0-2.626-.483c-.587.432-.053,1.965-.447,2.578-.2.3-.889-.3-1.081,0s.056.789.143,1.177c.052.233.047.429-.143.523-1.013.507-2.506-.7-3.4,0s.108,2-.634,2.83c-1.2,1.341-3.781,2.127-4.98,3.472-1.426,1.6-1.3,3.232-2.936,4.613-1.281,1.08-3.46,1.193-5.014,1.825-1.8.732-2.661,2.081-4.531,2.61-.566.159-1.254-.828-1.081-1.39,1.4-4.543,3.223-9.109,4.736-13.616.971-2.891,1.426-4.716,2.475-7.582a45,45,0,0,1,4.275-9.241c.349-.515,1.513-.179,1.7-.773.464-1.474-.4-3.145,0-4.635a5.69,5.69,0,0,1,2.422-2.782c.65-.418,1.687.164,1.974-.553.67-1.674.043-3.448.466-5.2a16,16,0,0,1,1.616-3.005c.685-1.46.635-2.727,1.391-4.153a27.65,27.65,0,0,0,2.282-4.041c.512-1.729.092-2.577.259-4.373.045-.484.753-.746.773-1.235.24-5.814.547-11.649.206-17.46-.027-.474-1.091-.452-1.081-.927.037-1.776.249-3.345.154-4.944-.019-.313.09-.569-.224-.582-4.839-.2-9.614-.093-14.455-.036-3.965.046-7.941-.272-11.9,0a2.159,2.159,0,0,0-1.545.582,3.013,3.013,0,0,0-.566,1.891c.1,2.583-.052,5.393,0,8.5.009.575,1.142.231,1.339.773a11.6,11.6,0,0,1,.464,4.79c-.04.514-.664,1.206-.651,1.719.249,1.787.48,3.05.807,4.77.188.665.759,1.185.927,1.854.2.8-.531,2.419.292,2.472a5.04,5.04,0,0,0,1.716,0c.629-.227-.231-1.381,0-2.009.164-.445,1.007-.459,1.081-.927.409-2.544-.3-5.526.1-8.07a2.956,2.956,0,0,1,1.236-2.009c.569-.352,1.6.528,2.009,0,.569-.733.009-1.577.362-2.436a8.956,8.956,0,0,1,2.318-3.245,5.931,5.931,0,0,1,3.038-1.908c2.713-.282,5.959-.029,9.632-.187.344-.015.438.515.464.859.124,1.694.439,4,0,5.1a19.808,19.808,0,0,1-3.537,5.048,35.075,35.075,0,0,0-2.782,3.28c-.925,1.367.457,3.232-.016,4.807a16.535,16.535,0,0,1-2.834,4.672c-.841,1.1-2.078,1.661-2.866,2.8a19.855,19.855,0,0,0-2.18,4.429,20.969,20.969,0,0,0-1.081,4.171c-.183,1.119.352,2.385-.154,3.4-.373.746-1.209.605-1.75,1.235a8.937,8.937,0,0,0-1.545,3.09,15.385,15.385,0,0,1-1.119,3.258c-.746,1.339-2.226,2.631-2.9,4a22.325,22.325,0,0,0-1.186,4.944c-.356,1.574-.653,3.055-.977,4.635a26.641,26.641,0,0,0-.773,5.872c.012.6.648,1.014.927,1.545.236.449.778.91.622,1.391-.219.657-1.447.7-1.545,1.391a2.051,2.051,0,0,0,.6,1.854c.452.426,1.375.241,1.7.772a2.238,2.238,0,0,1,0,2.009c-.239.5-1.075.381-1.185.928-.456,2.224.092,3.8-.3,6.04Zm133.966,21.9c-.29-.921.434-1.1.916-1.581a4.973,4.973,0,0,0,1.664-2.772,21.048,21.048,0,0,0,.767-2.214,6.559,6.559,0,0,0-.431-3.3c-.439-1.039-1.158-1.58-.9-2.572.092-.634,1.525-.712,2.654-1.213a2.534,2.534,0,0,0,1.289-1.259c.249-.636-.576-.527-.994-1.336-.446-.86-.512-2.149-.856-2.79-.6-1.119-1.7-2.61-1.74-3.884-.107-3.385.87-6.8.994-10.057.106-2.734.746-3.381.543-6.179a9.609,9.609,0,0,0-1.625-3.83,20.226,20.226,0,0,1-1.8-3.458c-.572-1.979,0-4.324-.343-6.354-.067-.4-1.065-.885-1.1-1.288-.257-2.787.057-5.642-.124-8.4-.092-.518-.512-.621-.562-1.142-.145-1.545,0-3.05-.006-4.386,0-1.178-.167-2.186-.167-3.556,0-.511-.424-.86-.44-1.367-.1-3.014.022-6.339-.017-9.362-.043-3.214-.24-6.119.017-9.322.045-.54,1.135-.527,1.119-1.068-.1-2.452-.313-3.428-.256-5.894,0-.285.589-.946.612-1.229a16.517,16.517,0,0,0-.1-5.863c-.373-1.271-1.331-1.668-2.427-2.486-.967-.725-2.045-1.9-2.94-2.564a10.549,10.549,0,0,1-2.774-2.793c-.522-.762.339-.829,1.3-.858a21.173,21.173,0,0,1,3.754.256c.4.062,1.145.746,1.52.892.9.351,1.492-.1,2.424.184a47.729,47.729,0,0,1,4.455,2.219c1.086.621,1.437,1.535,2.572,2.066.2.1,3.706,1.1,4.113,1.2.948.236,1.538-.456,2.486-.22,1.1.275,3.061.829,4.3,1.2.7.209,1.137,1.032,1.851,1.173,3.459.691,2.841-.462,5.581,2.277.807.808,2.14,1.455,2.742,2.426.85,1.367.938,3.046,1.479,4.539.42,1.16,1.36,2.113,1.581,3.346.6,3.317-.026,6.766.38,10.113.124,1.022,1.175,2.1,1.285,3.124a51.122,51.122,0,0,1,.012,11.7c-.161,1.319-1.271,1.856-1.469,3.169-.329,2.2.328,4.461.172,6.685a7.325,7.325,0,0,1-1.224,3.085c-.408.661-1.341.9-1.641,1.616-.787,1.881-.589,4.452-.955,6.491-.113,3.89-.034,6.907.133,10.795a44.8,44.8,0,0,1,.049,7.92c-.124.942-.911,1.459-1.053,2.4-.39,2.6-.055,5.269-.307,7.884-.043.445-.7.961-.8,1.4a31.2,31.2,0,0,1-1.383,8.57,10.584,10.584,0,0,1-3.955,4.591,15.916,15.916,0,0,1-5.006,1.667,15.548,15.548,0,0,0-3.427.685c-.621.322-.2.327-.771.732a1.084,1.084,0,0,1-1.2,0c-.435-.357-.3-.5-.808-.746a3.262,3.262,0,0,0-2.572,0c-.568.249-.36.687-.968.805a18.979,18.979,0,0,1-3.987.515c-.793-.02-1.419.337-1.643-.373Zm11.5-88.017a4.928,4.928,0,0,1,3.592.639,6.327,6.327,0,0,1,2.884,2.946l1.491,1.446c2.036,1.965,3,4.738,3.828,7.333.137,2.822.746,7.765-.666,10.324a8.437,8.437,0,0,0-1.1,3.349c-.333,3.034-1.193,2.56-2.07,4.857a9.6,9.6,0,0,0-.208,2.877q-.115,7.923-.231,15.845a17.65,17.65,0,0,1-2.048,8.1,7.685,7.685,0,0,0-1.22,4.14,9.977,9.977,0,0,1-1.2,4.751l-1.457,3.337c-.576,1.318-1.1,1.79-1.485,1.616s-.621-1-.613-2.282q.051-9.672.1-19.343.111-10.283.221-20.566a3.436,3.436,0,0,0-.994-2.89,16.216,16.216,0,0,0-1.221-5.336,8.96,8.96,0,0,1-.807-4.785q-.083-7.147-.168-14.294c-.031-2.918.63-1.919,3.375-2.063Zm-112.355,81.968a21.787,21.787,0,0,1-.02-6.6c.066-.465,1-.031,1.259-.424a2.449,2.449,0,0,0,.472-2.046c-.15-.392-.418.149-.643-.205a1.627,1.627,0,0,1,.158-1.73c.523-.664,1.571-.5,1.929-1.259.488-1.047-.349-2.362,0-3.463.112-.349,1.016.357,1.1,0,.408-1.683-.1-3.48.158-5.193.067-.446.461-.654.513-1.1a19.547,19.547,0,0,0,0-5.667c-.206-1.155-1.139-1.989-1.3-3.147a50.4,50.4,0,0,1-.219-13.022c.421-3.276,2.509-8.341,3.736-11.409.767-1.918,1.143-1.32,1.833-3.269a3,3,0,0,0,.158-1.888c-.249-.746-1.13-1.318-1.006-2.094.152-.952,1.323-.928,1.634-1.841.424-1.243-.43-2.7,0-3.934.506-1.458,2.248-2.294,2.675-3.777.408-1.414-.03-3.674.373-5.1a33.709,33.709,0,0,1,3.092-7.184c.8-1.52,2.189-2.805,2.813-4.406a28.173,28.173,0,0,0,.808-4.878c-.983-1.229-3.24.486-4.723-.049-.746-.271-.746-1.5-1.492-1.792a6.235,6.235,0,0,0-4.25.7c-1.521,1.141-1.533,2.477-2.128,4.283-.889,2.7-.211,5.727-1.32,8.341-.439,1.034-2.227,1.324-3.086,2.046-.455.382-.666.779-1.259.779a1.145,1.145,0,0,1-1.259-.779,18.045,18.045,0,0,1,0-3.62c-.046-.948-.554-1.914-.315-2.833.124-.479,1.221-.293,1.259-.787.471-5.407-.177-10.78-.093-15.947.029-1.815.511-1.545,2.3-1.564,3.008-.031,7.776-.007,11.232-.025,6.067-.03,12.147-.257,18.2-.091.9.066,2.072.4,2.135,1.3.124,1.821-1.093,3.576-1.936,5.194-.446.855-1.444,1.414-1.772,2.319-.558,1.535.047,3.356-.542,4.879-.36.935-2.194,1.107-2.546,2.046-.5,1.327.362,2.931-.158,4.25-.257.655-1.654.281-1.888.945-.792,2.246-.327,4.783-.943,7.085-.342,1.269-1.3,2.159-1.478,3.463-.472,3.536.307,7.148,0,10.7-.067.772-.883,1.3-1.1,2.046-.518,1.74-.845,3.631-1.443,5.345-.257.746-1.216,1.129-1.416,1.888-.3,1.119.445,2.4,0,3.463-.561,1.339-2.532,1.886-2.833,3.3-.849,4.006.5,8.229-.124,12.275-.28,1.811-1.876,3.232-2.2,5.036-.423,2.322.3,5.069-.275,7.356-.558,2.209-2.159,4.124-2.962,6.255-.188,2.091-2.693,4.01-1.327,5.593,1.648.218,4.383.554,6.3-.316.88-.4-.139-2.246.63-2.833,2.35-1.795,5.046-2.443,7.684-3.777a31.474,31.474,0,0,0,4.749-2.518c.682-.522.761-1.76,1.572-2.047.49-.173.59,1.014,1.1,1.1,1.758.3,3.283-.453,5.009,0,.69.181.669,1.109.849,1.8.162.621.44,1.284.1,1.82-.208.322-.957-.037-1.1.316a3.945,3.945,0,0,0,0,2.362c.144.6.689.964.74,1.573a48.971,48.971,0,0,1,0,9.6c-.075.667-.454,1.367-1.119,1.436-4.539-.209-8.735.124-13.281.138-.467-.041-.2-.87-.63-1.054a8.828,8.828,0,0,0-4.529-.287c-1.447.332-1.569,1.521-3.024,1.812-2.624.525-5.655.011-8.3.411-.935.142-1.649.935-2.565,1.163-1.284.322-3.291.658-3.946-.474Zm-70.1,7.392c-1.963.688-4.252,0-6.332.046-.641.014-1.684.517-2.3.336-.672-.2-1.731-1.53-1.311-2.091,1.642-2.189,4.879-2.462,6.378-4.749.881-1.346.056-3.157.435-4.723.117-.48.958-.436,1.207-.863a1.132,1.132,0,0,0,0-1.205c-.6-.7-.976.766-1.212-1.324a27.6,27.6,0,0,1-.082-5.633c.109-1.189.973-.937,1.136-1.565.3-1.167-.328-2.032-.015-3.2.14-.523,1.11-.391,1.378-.863a1.58,1.58,0,0,0,0-1.551c-.587-.88-2.183-.87-2.362-1.91a32.1,32.1,0,0,1-.124-5.884c.036-2.029-.1-4.062.066-6.128.031-.383.9-.373,1.034-.727a4.74,4.74,0,0,0,0-2.237c-.077-.594.106-1.81.06-2.406-.07-.919-.464-1.259-.037-2.074.3-.568,1.268-.226,1.356-.861.471-3.356-.534-6.8-.173-10.169.061-.572.961-.48,1.111-1.034a4.079,4.079,0,0,0-.077-2.758c-.187-.4-1.068-.4-1.1-.833-.387-4.926.286-9.582-.1-14.506-.036-.461-1.17.185-1.191-1.816-.024-2.1-.216-4.053-.189-5.593.022-1.183,2.575-1.216,2.548-2.4a29.026,29.026,0,0,0-.173-5.688c-.133-.6-.91-.5-1.168-1.049a1.886,1.886,0,0,1,.21-1.566c.268-.638.994-1.039,1.17-1.709a8.107,8.107,0,0,0,0-3.792c-.093-.4-.788-.8-.982-1.162-.358-.677-.2-1.274-.675-1.873-.331-.413-1.306-.159-1.708-.5-1.035-.884-1.632-1.865-2.5-2.671a10.757,10.757,0,0,1-2.544-2.438,2.223,2.223,0,0,1,.72-2.451,1.793,1.793,0,0,1,1.843,0c.452.241.444,1.2.952,1.274,2.221.31,4.426-.669,6.616-.188.955.21,1.006,1.416,1.9,1.82.6.271,1.669-.249,2.211.113a16.951,16.951,0,0,1,2.1,2.319c.805.82,1.5,1.186,1.913,2.349a12.539,12.539,0,0,1,.268,4.5c-.02,1.347.2,2.711.076,4.079-.041.46-.926.249-1.049.69a3.135,3.135,0,0,0,.344,2.362c.3.511,1.1.249,1.289.809a7.807,7.807,0,0,1,.173,4.242c-.124.5-1.086.178-1.119.69a121.4,121.4,0,0,0,.173,19.476c.112,1.1,1.847,1.492,1.964,2.585.65,6.113.058,12.305-.2,18.441a6.833,6.833,0,0,1-.824,2.623,4.181,4.181,0,0,0-.136,2.261,25.144,25.144,0,0,0,.054,3.217c.089.6,1.316,1.177,1.274,1.785a25.877,25.877,0,0,0,.225,4.119c.05.8-1.4,1.293-1.864,1.943a2.113,2.113,0,0,0-.262,1.88c.249.477.71.235.854.756a2.5,2.5,0,0,1-.15,2.031c-.24.431-1.119.373-1.207.86-.235,1.367.539,2.768.344,4.138-.058.41-.973.28-1.034.689-.306,2.045.347,4.165,0,6.2-.13.771-1.324,1.119-1.378,1.9-.031.435.994.132,1.207.517.326.61-.5,1.874.173,2.068a14.129,14.129,0,0,0,7.157-.1c1.259-.332,1.791-2.1,3.087-2.219,1.561-.147,2.713.884,4.256,1.16a14.612,14.612,0,0,0,6.257-.1c1.178-.317,1.864-1.567,3.073-1.729,5.238-.7,10.1-.271,15.384-.3,5-.027,11.39-.28,15.1.124,2.113.071-.178,7.556.584,11.51.167.861.9,1.342,1.344,2.139.7,1.27.978,1.917-.851,1.909-3.442-.017-6.926.249-10.659.091-.733-.031-.7-1.445-1.378-1.724-.746-.3-1.629.362-2.413.174-1.173-.283-2.5-1.408-3.694-1.551-3.194-.383-6.412.418-9.6-.022-.723-.1-.823-1.5-1.551-1.552-7.448-.544-14.585.237-22.041-.169-1.6-.087-1.74-.644-2.756-.938a9.3,9.3,0,0,0-5.345.054c-2.518,1.178-2.509,3.408-5.133,4.329Zm89.659-29.121c-1.556-.046-1.659-2.546-1.536-4.078.124-1.567,2.174-1.491,2.9-2.879.532-1.014-.266-2.8.342-3.767.654-1.047,2.425-1.007,3.079-2.053.373-.6-.184-1.74-.168-2.448.041-1.669.415-2.9.339-4.565a17.915,17.915,0,0,1-.236-3.286c.225-1.165.919-.882,1.263-2.017.428-1.421-.283-3.036.17-4.448.181-.558,1.644-.278,1.54-.855-.124-.7-1.408-.324-1.536-1.027a15.911,15.911,0,0,1,.168-6.748c.36-1.31,1.847-2.313,2.225-3.62.394-1.367-.44-2.921,0-4.277.3-.921,1.818-1.119,2.053-2.053.552-2.214.06-4.928.635-7.136a7.432,7.432,0,0,1,1.648-3.2,3.194,3.194,0,0,0,1.054-1.439c.285-.941-.415-1.731-.249-2.7.143-.858.8-1.409,1.213-2.173.526-.963.746-2.185,1.25-3.158a32.585,32.585,0,0,0,2.255-4.13c.394-1.13-.452-2.972.052-4.057.715-1.537,2.562-1.5,3.266-3.041.569-1.243-.426-2.874.172-4.1a2.664,2.664,0,0,1,2.41-1.334A2.031,2.031,0,0,1,774.809,936c.49,1.344.047,2.958.6,4.277.971,2.319,2.656,3.685,3.59,6.021.486,1.217-.04,2.968.257,4.245.405,1.74.689,3.486,1.263,5.177.712,2.106,1.731,4.148,2.331,6.286.53,1.893.656,3.948,1.065,5.875a31.265,31.265,0,0,0,1.33,4.047c.208.579.909.433,1.075,1.027.293,1.049-.588,2.189-.342,3.25.292,1.268,1.657,2.553,1.881,3.834a40.447,40.447,0,0,1,.035,6.175,48.831,48.831,0,0,0,.5,5.566c.156,1.137.785,2.759.814,3.586.106,3.079.249,6.11.276,9.2.052,4.506.052,9.322-.173,13.818-.026.525-.653.793-.836,1.285a33.7,33.7,0,0,0-1.73,4.836,15.52,15.52,0,0,1-.684,3.079c-.27.587-1.474,1.066-1.678,1.678-.452,1.367.1,2.734,0,4.432a9.621,9.621,0,0,1-1.3,3.665,26.725,26.725,0,0,0-1.354,3.349c-.281,1.053.224,2.206-.084,3.252-.163.546-.909.81-1.027,1.367-.3,1.395.256,2.916-.172,4.276-.241.771-.408.658-1.142.995-.522.234-1.891.5-1.969-.068-.332-2.381.339-4.035-.039-6.411-.441-2.78-1.6-4.474-2.306-7.2-.341-1.324.268-3.718-.36-4.931-1.132-2.186-4.758-3.07-4.6-5.526.152-2.376,1.572-3.923,3.019-5.855a24.121,24.121,0,0,0,2.246-4.994,10.282,10.282,0,0,0,.736-3.511,3.585,3.585,0,0,0-1.652-3.368c-2.59-2.128-6.775-4.074-10-5.642-.472-.23-1.027.672-1.027,1.2s.615.935.676,1.455c.18,1.532-.746,3.124-.085,4.516.7,1.472,3.468,1.9,3.058,3.48a2.522,2.522,0,0,1-1.432,1.943,3.744,3.744,0,0,1-1.781.321c-1.905.087-3.864-.588-5.705-.2a23.837,23.837,0,0,0-5.636,2.267,8.5,8.5,0,0,1-3.826,1.375Zm16.851-23.918c-.017-1.509-.054-2.994-.051-4.474,0-1.31.035-2.621.138-3.948.067-.861.856-1.519.957-2.378.17-1.418-.7-3.121-.3-4.486.159-.553,1.564,0,1.881-.464.1-.153.317-1.04.672-1.8.214-.454.656-.861.656-1.037a31.746,31.746,0,0,1,.174-3.615c.111-.906.249-1.67.388-1.677s.275.746.754,1.367a24.661,24.661,0,0,1,1.223,2.191,2.664,2.664,0,0,0,1.063,1.16c.6.234,1.318-.094,1.914.145.446.18.556.88.957,1.16.271.189.895-.17.957.174.283,1.554.039,3.632.286,5.193.06.373.886.2.9.579q.189,4.076.179,8.161-.011,3.6-.2,7.209c-.034.684-1.841.732-2.345.348a7.584,7.584,0,0,0-2.87-1.913c-.532-.124-.506-.971-1.01-1.139a12.406,12.406,0,0,0-3.7-.466,24.247,24.247,0,0,1-2.626.174c-.143-.023,0-.315,0-.47Zm36.332-46.838c0,1.564.17,3.258.175,4.895.007,2.113-.145,3.995-.138,6.118.007,2.261.177,4.759.177,6.972,0,1.8-.328,5.253-.189,6.747.178,1.92.283,2.252,2.909,2.252,1.27,0,2.992-1.3,4.261-2.62.87-.9.738-2.457,1.071-3.13a10.919,10.919,0,0,0,1.505-3.043c.224-1.478-.316-2.7.669-3.642.388-.373.754-4.615.754-5.548,0-1.33-1.4-3.3-3-5.069-1.1-1.208-2.416-2.292-2.983-3.12A4.789,4.789,0,0,0,804,947.036c-2.227-.5-2.194-.293-2.193,1.639Zm-11.761,83.253c-.415,1.642.849,2.312,2.344,3.279a55.691,55.691,0,0,1,4.847,3.563c2.752,2.255,4.625,6.371,6.416,10.425.922-.981.271-5.548.788-8.286.111-.587.746-1.009.8-1.6a28.923,28.923,0,0,0,0-6.415c-.1-.792-.87-1.367-1.069-2.139a4.169,4.169,0,0,1,0-1.872c.149-.746.733-1.381.8-2.139a27.819,27.819,0,0,0,0-6.681c-.124-.832-1.4-1.3-1.336-2.139.054-.694,1.552-.643,1.6-1.336a30.217,30.217,0,0,0-.788-5.88c-.556-4.442-.879-8.911-1.337-13.364-.164-1.6-.805-3.22-.534-4.811.836-2.169,1.6-4.4,2.405-6.148.393-.516.911.5,1.31,1,1.3,1.663,3.033,3.721,3.407,5.8.459,2.549-.922,4.8-.621,7.377.086.746,1.243.621,1.51,1.323a58.227,58.227,0,0,1,2.941,10.425,85.616,85.616,0,0,1,1.069,12.3,16.961,16.961,0,0,1-.536,5.344c-.731,2.45-2.252,4.4-3.007,6.77-.79,2.476-1.045,3.215,1.576,3.214a7.4,7.4,0,0,1,3.049.44c2.145,1.073,3.03,3.546,5.066,4.812.44.273,1.016.653,1.616.994,2.887,1.616,3.2.5,3.806-2.029.793-3.344.994-6.358,1.508-9.654a45.527,45.527,0,0,0,.281-5.079c.1-2.41.286-4.808.162-7.218a5.133,5.133,0,0,0-.788-3.207c-.554-.64-2.188.014-2.405-.8-.3-1.119,1.315-2.05,1.336-3.208a71.28,71.28,0,0,1-.9-9c-.06-3.631-.838-1.8-2.042-3.232a4.448,4.448,0,0,1-1.068-2.734c-.336-3.281.139-6.911-.362-10.171a8.142,8.142,0,0,0-1.864-4.01c-.349-.4-.994.2-1.231-.281-.4-.8.83-1.349.36-2.113-1.091-1.771-3.373-3.124-5.1-4.277-.518-.346-1.432.441-1.872,0a2.1,2.1,0,0,1,0-2.246,9.258,9.258,0,0,0,6.174-3.634,22.721,22.721,0,0,0,4.064-7.925c.472-1.357-.132-2.943.026-4.37.293-2.641,1.678-5.04,1.217-7.658a27.519,27.519,0,0,0-4.7-10.425,12.9,12.9,0,0,0-5-4.277c-1.616-.767-2.973-.124-4.692-.628-1.989-.582-3.583-1.7-5.613-2.113-1.58-.324-3.239.336-4.811-.027-.982-.226-1.141-1.33-2.139-1.483-.687-.106-1.39.89-2.083.948-4.794.406-8.729-.522-13.5.107-.712.094-.51.887.081,1.3.883.61,2.224.309,3.208.734a12.769,12.769,0,0,1,4.437,3.208,19.906,19.906,0,0,1,2.512,4.277c.405.746,1.57-.682,2.408-.8,1.056-.15,1.792-.179,2.46.655.6.746-.641,1.74-1.349,2.391a29.566,29.566,0,0,1-3.672,2.859c-.87.593-2.4,1.125-3.04,2.283-1.427,2.57.266,5.493.815,8.38.2,1.053.431,2.083.67,3.127.777,3.4.516,6.223.988,9.675.153,1.119.945,2.088,1.069,3.208.148,1.331-.092,2.311.107,3.636a16.726,16.726,0,0,0,.695,1.71,37.829,37.829,0,0,1,1.336,8.045c.273,8.282-.217,16.4.2,24.671.039.753,1.168,1.052,1.324,1.79.241,1.146-.523,2.462-.909,3.568-1.582,4.529-3.437,7.918-4.412,11.773Z" transform="translate(7181.944 2507.168)" fill="#e0e0e0" fill-rule="evenodd"/>
  </g>
</svg>
