<svg xmlns="http://www.w3.org/2000/svg" width="256" height="256" viewBox="0 0 256 256">
  <g id="Direct2Drive" transform="translate(-7921 -3366)">
    <rect id="Rect치ngulo_1886" data-name="Rect치ngulo 1886" width="256" height="256" transform="translate(7921 3366)" fill="none"/>
    <path id="Uni칩n_1" data-name="Uni칩n 1" d="M161.6,51.379l10.983-20.337h25.1l-6.276,9.633,43.932-16.056L208.673,7.493l-4.71,9.633h-25.1L188.281,0h58.051c21.39,5.928,5.454,45.737-29.81,51.379Zm-83.154,0s7.781-28.391,39.223-31.041h29.81s14.878-5.3,4.71-8.563H125.518c-8.629,1.338-7.846,5.352-7.846,5.352h-20.4S100.809,4.282,120.811,0h45.5c33.211,16.176-17.258,32.112-17.258,32.112H116.1c-7.41,1.661-9.413,6.422-9.413,6.422h53.344l-6.276,12.845ZM0,51.379,26.673,0H84.724c16.866,4.282,9.419,17.126,9.419,17.126H39.233L31.387,32.112H84.724s-8.629,14.45-29.813,19.267Z" transform="translate(7921 3468)" fill="#e0e0e0"/>
  </g>
</svg>
