<svg xmlns="http://www.w3.org/2000/svg" width="256" height="256" viewBox="0 0 256 256">
  <g id="dreamgame" transform="translate(-6400 -3755)">
    <rect id="Rectángulo_1889" data-name="Rectángulo 1889" width="256" height="256" transform="translate(6400 3755)" fill="none"/>
    <path id="dreamgame-2" data-name="dreamgame" d="M120.9,246.784h0l-9.943-18.7q-4.1.324-8.249.324A102.621,102.621,0,0,1,0,125.7c0-.5,0-1.021.011-1.533H33.742A69,69,0,0,1,166.268,98.85q1.122,2.653,2.017,5.389h23.9A90.919,90.919,0,0,0,28.61,73.215l-3.345-6.291h0L14.278,46.262l-3.717-6.989c.928-.989,1.874-1.966,2.813-2.906A124.164,124.164,0,0,1,223.76,104.236H256V134.9H224.888A124.135,124.135,0,0,1,121.434,246.7l-.453.241Zm8.885-12.676c49.242-12.593,84.827-57.548,84.827-109.941H245.27v-9.2H214.244c-4.681-58.452-54.009-104.239-112.3-104.239A112.1,112.1,0,0,0,25.379,41.016L31.2,51.971a102.686,102.686,0,0,1,173.66,63H157.893v-2.4a56.723,56.723,0,1,0,.788,22.327H77.033l12.226,22.993H138.4l-13.253,10.731H79.34L55.7,124.167H205.4c.008.548.011,1.049.011,1.533a102.711,102.711,0,0,1-80,100.194Zm-26.311-16.432a90.622,90.622,0,0,0,16.658-1.537l.077-.041.013.024c39.4-7.4,69.973-40.434,74.009-81.224H171.085A69.011,69.011,0,0,1,39.146,152.551,68.28,68.28,0,0,1,34.33,134.9H12.716c4.592,46.41,43.544,82.776,90.757,82.776Z" transform="translate(6400 3759.049)" fill="#e0e0e0"/>
  </g>
</svg>
