<svg xmlns="http://www.w3.org/2000/svg" width="20" height="20" viewBox="0 0 20 20">
  <g id="dribbble" transform="translate(-4 -4)">
    <circle id="Elipse_14109" data-name="Elipse 14109" cx="9.687" cy="9.687" r="9.687" transform="translate(4.313 4.313)" fill="#ed3675"/>
    <path id="Trazado_8097" data-name="Trazado 8097" d="M14,4A10,10,0,1,0,24,14,10,10,0,0,0,14,4Zm6.6,4.609a8.5,8.5,0,0,1,1.931,5.314,20.176,20.176,0,0,0-5.944-.271c-.065-.141-.119-.293-.184-.444-.174-.412-.369-.835-.564-1.236A11.43,11.43,0,0,0,20.6,8.609ZM14,5.475a8.523,8.523,0,0,1,5.661,2.148,9.68,9.68,0,0,1-4.479,3.08,46.133,46.133,0,0,0-3.188-5A8.707,8.707,0,0,1,14,5.475Zm-3.633.8a53.945,53.945,0,0,1,3.167,4.935,32.036,32.036,0,0,1-7.9,1.042A8.583,8.583,0,0,1,10.366,6.278ZM5.454,14.011v-.26a31.2,31.2,0,0,0,8.774-1.215c.25.477.477.965.694,1.453-.108.033-.228.065-.336.1a13.581,13.581,0,0,0-6.941,5.629A8.519,8.519,0,0,1,5.454,14.011ZM14,22.546a8.481,8.481,0,0,1-5.238-1.8,11.727,11.727,0,0,1,6.7-5.336c.021-.011.032-.011.054-.022a35.285,35.285,0,0,1,1.822,6.475A8.409,8.409,0,0,1,14,22.546Zm4.761-1.464A36.8,36.8,0,0,0,17.1,15a12.465,12.465,0,0,1,5.314.369A8.469,8.469,0,0,1,18.761,21.082Z" fill="#bd1949" fill-rule="evenodd"/>
  </g>
</svg>
