<svg xmlns="http://www.w3.org/2000/svg" width="256" height="256" viewBox="0 0 256 256">
  <g id="epic-games" transform="translate(18 -0.9)">
    <rect id="Rectángulo_1889" data-name="Rectángulo 1889" width="256" height="256" transform="translate(-18 0.9)" fill="none"/>
    <path id="Trazado_8114" data-name="Trazado 8114" d="M200.448.9H19.981C5.435.9,0,6.335,0,20.961V197.512a41.725,41.725,0,0,0,.24,4.636c.32,3.2.4,6.314,3.357,9.831.32.32,3.357,2.637,3.357,2.637,1.6.8,2.717,1.359,4.556,2.158L100.3,254.017c4.636,2.078,6.554,2.957,9.91,2.877,3.357.08,5.275-.719,9.91-2.877l88.795-37.244a48.436,48.436,0,0,0,4.556-2.158s3.037-2.238,3.357-2.637c2.957-3.517,3.037-6.634,3.357-9.831a41.724,41.724,0,0,0,.24-4.636V20.961C220.429,6.335,215.074.9,200.448.9" transform="translate(0)" fill="#e0e0e0"/>
    <path id="Trazado_8115" data-name="Trazado 8115" d="M196.21,186.742l-.08.4-.08.48-.08.4-.16.4-.08.4-.16.4-.16.4-.16.32-.16.4-.24.32-.24.32-.24.32-.24.32-.24.32-.32.32-.24.24-.32.32-.32.24-.32.24-.32.16-.32.24-.4.24-.4.16-.4.24-.4.16-.4.16-.4.16v-.08l-.4.16-.4.08-.719.16-.4.08-.4.08-.4.08-.4.08-.48.08-.4.08h-1.6l-.4-.08h-.48l-.4-.08-.4-.08-.48-.08-.4-.08-.4-.08-.4-.08-.4-.08-.4-.08-.4-.08-.4-.16-.4-.08-.4-.16-.4-.16-.4-.16-.4-.16-.4-.16-.4-.16-.4-.16-.4-.16-.4-.16-.4-.16-.4-.24-.32-.24-.4-.24-.32-.24-.32-.24-.32-.24-.32-.24-.32-.24-.32-.24-.32-.24-.32-.32.24-.32.32-.32.24-.32.32-.32.24-.32.24-.32.32-.32.24-.32.32-.32.24-.32.32-.32.24-.32.24-.32.32-.32.24-.32.32-.32.24-.32.32.24.4.24.32.24.4.24.32.24.4.24.32.24.4.16.32.24.4.16.4.16.4.16.4.16.4.16.4.16.4.16.4.16.4.08.8.16.48.08.4.08h.4l.48.08h.879l.48-.08.4-.08.4-.08.4-.08.32-.16.32-.16.32-.24.24-.32.16-.32.16-.4.08-.4v-.08l-.08-.48-.16-.4-.24-.32-.32-.24-.32-.24-.32-.16-.4-.16-.4-.16-.48-.24-.32-.08-.32-.08-.4-.16-.4-.08-.4-.16-.4-.08-.48-.16-.4-.08-.48-.16-.4-.08-.4-.16-.4-.08-.4-.16-.4-.16-.4-.08-.4-.16-.4-.16-.4-.16-.48-.16-.4-.16-.4-.16-.4-.16-.4-.24-.4-.24-.32-.24-.4-.24-.32-.24-.32-.24-.32-.24-.32-.32-.32-.32-.24-.32-.24-.32-.24-.32-.24-.32-.24-.4-.16-.32-.16-.32-.08-.4-.16-.32-.08-.4-.08-.4-.08-.4-.08-.4-.08-.48V172.6l.08-.4.08-.4.08-.4.08-.4.08-.4.16-.4.08-.4.16-.4.16-.4.16-.4.24-.4.24-.4.24-.32.24-.32.32-.32.32-.32.32-.32.32-.32.32-.24.32-.24.32-.24.32-.24.4-.24.4-.16.4-.24.4-.16.4-.16.4-.16.4-.16.32-.08.4-.08.4-.08.4-.08.4-.08.4-.08.4-.08.4-.08.4-.08H184.7l.48.08.48.08h.4l.48.08.4.08.48.08.4.08.4.08.4.08.4.08.4.08.4.16.4.16.4.08.4.16.4.16.4.16.4.16.4.16.4.24.32.16.4.24.4.24.32.24.4.24.32.24.32.24.32.24.32.24-.24.32-.24.32-.24.32-.24.32-.24.4-.24.32-.24.32-.24.32-.24.32-.24.32-.24.32-.24.32-.24.4-.24.32-.24.32-.8,1.758-.24.32-.32-.24-.4-.24-.32-.24-.32-.24-.4-.16-.32-.24-.4-.16-.32-.16-.4-.16-.32-.16-.4-.16-.32-.16-.48-.16-.4-.16-.4-.16-.4-.08-.24.16-.4-.08-.4-.08-.4-.08-.4-.08h-.879l-.48.08-.4.08-.4.08-.32.16-.32.16-.4.32-.24.4-.16.4-.08.4v.08l.08.559.16.48.16.24.32.32.4.24.32.24.4.16.48.16.48.16.32.08.32.16.4.08.4.16.4.08.48.16.48.16.48.16.48.08.4.16.48.16.4.08.4.16.4.16.4.16.4.16.4.16.4.08.48.16.4.24.4.16.4.24.4.24.4.24.32.24.32.24.32.24.32.32.32.32.32.32.32.32.24.32.24.4.24.32.24.4.16.32.16.4.08.4.08.4.16.8.08.4.08.48v.959l-.559-.48Zm-28.373,8.152H144.579V165.242H168v6.714H152.332v4.875H166.4v6.314H152.332v5.035h15.9v6.714h-.4Zm-29.652,0h-7.433v-17.5l-.24.32-.24.4-.24.32-.24.32-.24.4-.24.32-.24.32-.24.4-.24.32-.24.32-.24.32-.24.4-.24.32-.24.32-.24.4-.24.32-.24.32-.24.4-.16.32-.24.32-.24.4-.24.32-.24.32-.24.4-.24.32-.16.32-.24.32-.24.4-.24.32-.24.32-.16.4-.24.32-.24.32-.24.4-.24.32h-.16l-.24-.4-.24-.32-.24-.4-.24-.32-.24-.4-.24-.32-.24-.4-.24-.32-.24-.4-.16-.32-.24-.4-.24-.32-.24-.4.4-.4-.24-.4-.24-.32-.24-.4-.24-.32-.24-.4-.24-.32-.16-.24-.24-.32-.24-.4-.24-.32-.24-.4-.24-.32-.24-.4-.16-.24-.24-.4-.24-.32-.24-.4-.24-.32-.24-.4-.24-.32v17.423h-7.673V165.162h8.312l.24.32.24.4.24.32.24.4.24.32.24.4.24.32.24.4.24.32.24.32.24.4.24.32.24.4.24.32.24.4.24.32.24.32.24.4.24.32.24.4.24.32.24.4.24.32.16.4.24.32.16.32.24.4.24.32.24.4.24.32.16.4.24.32.24.4.24.32.24-.32.24-.4.24-.32.24-.4.24-.32.24-.4.24-.32.24-.4.24-.32.16-.32.24-.4.24-.32.24-.4.24-.32.24-.4.24-.32.24-.4.24-.32.24-.32.24-.4.24-.32.24-.4.24-.32.24-.4.16-.32.24-.32.24-.4.24-.32.24-.4.24-.32.24-.4.24-.32.24-.4.24-.32h8.312v29.652l-1.838.08ZM91.19,182.666l-.16-.4-.16-.4-.16-.4-.16-.4-.16-.4-.16-.4-.16-.4-.16-.4-.16-.4-.16-.4-.16-.4-.16-.4-.16-.4-.16-.4-.16-.4-.16-.4-.16-.4-.16-.4-.16-.4-.16-.4-.16-.4-.16-.4-.16.4-.16.4-.16.4-.16.4-.16.4-.16.4-.16.4-.16.4-.16.4-.16.4-.16.4-.16.4-.16.4-.16.4-.16.4-.16.4-.16.4-.16.4-.16.4-.16.4-.16.4-.16.4-.16.4h6.873l.32-.4ZM103.9,194.894H95.986l-.16-.4-.16-.4-.16-.4-.16-.4-.16-.4-.16-.4-.16-.4-.16-.4-.16-.4-.16-.4-.16-.4-.16-.4-.16-.4-.16-.4-.16-.4H82.079l-.16.4-.16.4-.16.4-.16.4-.16.4-.32.719-.16.4-.16.4-.16.4-.16.4-.16.4-.16.4-.16.4-.16.4H71.689l.16-.4.32-.719.16-.4.16-.4.32-.719.16-.4.16-.4.16-.4.16-.24.16-.4.16-.4.16-.4.16-.4.16-.4.16-.4.16-.4.16-.4.16-.4.16-.4.16-.4.32-.719.16-.4.16-.4.16-.4.16-.4.16-.4.16-.4.16-.4.16-.4.16-.4.16-.4.16-.4.16-.4.16-.4.16-.4.16-.4.16-.4.16-.4.16-.4.16-.4.16-.4.16-.4.16-.4.16-.4.16-.4.16-.4.16-.4.16-.4.16-.4.16-.4.16-.4.16-.4.16-.4.32-.719.16-.4.16-.4.16-.4.16-.4.16-.4.16-.4.16-.4.16-.4.16-.4.16-.4.08-.4.16-.4.16-.4.16-.4.16-.4.16-.4.16-.4.16-.4.16-.4.32-.719.16-.4H91.91l.16.4.16.4.16.4.16.4.16.4.16.4.16.4.16.4.16.4.16.4.16.4.16.4.16.4.16.4.16.4.16.4.16.4.16.4.16.4.16.4.16.4.16.4.16.4.16.4.16.4.16.4.16.4.16.4.16.4.16.4.32.719.16.4.16.4.16.4.16.4.16.4.16.4.16.4.16.4.16.4.16.4.16.4.16.4.16.4.16.4.16.4.16.4.16.4.16.4.16.4.16.4.16.4.16.4.16.4.16.4.16.4.16.4.16.4.16.4.16.4.16.4.16.4.16.4.16.4.16.4.16.4.16.4.16.4.16.4.16.4.16.4.16.4.16.4.16.4.16.4.16.4.16.4.32.719-.8-.32Zm-35.486-3.836-.32.24-.32.24-.32.24-.32.24-.32.24-.32.24-.32.24-.4.24-.4.24-.4.24-.4.16-.4.24-.4.16-.4.16-.4.16-.4.16-.4.16-.4.16-.4.16-.4.16-.4.16-.4.08-.4.08-.4.08-.4.08-.4.08-.48.08-.4.08-.48.08-.4.08-.48.08H55.065l-.4-.08-.48-.08-.4-.08-.4-.08-.4-.08-.4-.08-.4-.08-.4-.08-.4-.08-.4-.08-.4-.08-.4-.16-.4-.16-.4-.16-.4-.16-.4-.16-.4-.16-.4-.16-.4-.24-.32-.16-.4-.24-.32-.24-.32-.24-.32-.24-.32-.24-.32-.24-.32-.24-.32-.24-.32-.32-.32-.24-.32-.32-.32-.32-.24-.32-.24-.32-.24-.32-.24-.32-.24-.32-.24-.32-.16-.32-.24-.4-.24-.32-.16-.4-.16-.4-.16-.4-.16-.4-.16-.32-.16-.4-.08-.4-.16-.4-.08-.4-.16-.4-.08-.4v-.4l-.08-.4v-.4l-.08-.4V178.27l.08-.48.08-.4.08-.4.08-.4.16-.4.08-.4.16-.4.16-.4.16-.4.16-.4.16-.4.16-.4.16-.4.16-.4.24-.4.24-.32.16-.32.24-.32.24-.32.24-.32.24-.32.24-.32.24-.32.32-.32.24-.32.32-.32.32-.32.32-.24.32-.32.32-.24.32-.24.32-.24.32-.24.32-.24.32-.24.4-.24.4-.24.4-.24.4-.16.4-.16.4-.24.32-.16.4-.16.4-.16.4-.08.4-.16.4-.08.4-.16.4-.08.4-.08.4-.08.4-.08.4-.08.4-.08.4-.08h1.678l.48.08.48.08h.4l.4.08.48.08.4.08.4.08.4.08.4.08.4.08.4.08.4.16.4.08.32.16.4.16.719.32.4.16.4.24.4.16.32.24.4.24.32.24.4.24.32.24.32.24.32.24.32.24.32.32.32.24-.24.32-.32.32-.24.32-.32.32-.24.32-.24.32-.32.32-.24.32-.24.32-.32.32-.24.32-.32.32-.24.32-.24.32-.32.32-.24.32-.32.32-.24.32-.32-.24-.32-.32-.32-.24-.32-.24-.32-.24-.32-.24-.32-.24-.4-.24-.32-.16-.32-.16-.32-.16-.4-.16-.4-.16-.4-.08-.4-.08-.4-.08-.4-.08-.48-.08-.48-.08h-.879l-.4.08-.4.08-.4.08-.4.08-.4.16-.4.16-.32.959-.4.16-.32.24-.32.24-.32.24-.32.24-.32.24-.32.24-.24.32-.32.32-.24.32-.24.32-.24.32-.16.4-.24.32-.16.4-.16.4-.16.4-.16.4-.08.4-.08.4-.08.48v2.957l.08.4.08.4.08.4.16.4.48-.16.16.4.16.4.24.4.4.639.24.32.24.32.32.32.24.32.32.24.32.24.32.24.32.24.32.24.4.16.4.16.4.16.4.16.4.16.4.08.4.08.4.08.48.08h.719l.48-.08.48-.08.4-.08.4-.08.4-.08.4-.08.4-.08.4-.16.32-.16.4-.16.32-.16.32-.24v-4H55.465V177.63H68.652V190.9l-.24.16ZM55.385,98.187H72.968V84.6H55.385V56.866h18.3V43.279H40.439v98.066H73.927V127.758H55.385V98.187m125.8,2.957v22.139c0,3.916-1.838,5.754-5.595,5.754h-2.8c-3.916,0-5.754-1.838-5.754-5.754V61.342c0-3.916,1.838-5.754,5.754-5.754h2.478c3.756,0,5.595,1.838,5.595,5.754V80.523H195.49V60.463c0-12.148-5.834-18.063-17.983-18.063h-7.273c-12.148,0-18.143,5.994-18.143,18.223v63.3c0,12.228,5.994,18.223,18.143,18.223h7.353c12.148,0,18.143-5.994,18.143-18.223V101.064H181.184m-51.79-57.785h14.946v98.066H129.394ZM107.734,86.837c0,3.916-1.838,5.754-5.595,5.754H95.986V56.467h6.154c3.756,0,5.595,1.838,5.595,5.754Zm-3.2-43.558H81.12v98.066H96.066V105.779h8.472c12.148,0,18.143-5.994,18.143-18.223V61.5c0-12.228-5.994-18.223-18.143-18.223ZM75.605,229.98h85.438l-43.558,14.386L75.605,229.98" transform="translate(-7.91 -8.332)"/>
  </g>
</svg>
