<svg id="favicon.ico" xmlns="http://www.w3.org/2000/svg" width="16" height="16" viewBox="0 0 16 16">
  <path id="Trazado_877" data-name="Trazado 877" d="M3.048,0h9.9A3.048,3.048,0,0,1,16,3.048v9.9A3.048,3.048,0,0,1,12.952,16h-9.9A3.048,3.048,0,0,1,0,12.952v-9.9A3.048,3.048,0,0,1,3.048,0Z" fill="#f74843"/>
  <path id="Trazado_876" data-name="Trazado 876" d="M1.4-6.644a1.121,1.121,0,0,0-.45-.1.347.347,0,0,1-.381-.335.353.353,0,0,1,.381-.37.333.333,0,0,1,.373.32.043.043,0,0,0,.042.03H1.84c.027,0,.046-.019.042-.03A.879.879,0,0,0,.949-8,.915.915,0,0,0,0-7.082a.807.807,0,0,0,.5.77,1.123,1.123,0,0,0,.453.1.392.392,0,0,1,.381.37A.357.357,0,0,1,.949-5.5h0v.549h0a.887.887,0,0,0,.945-.888A.849.849,0,0,0,1.4-6.644ZM4.381-5,3.223-7.977a.043.043,0,0,0-.076,0L1.992-5c-.011.023,0,.046.038.046h.522a.038.038,0,0,0,.038-.023l.594-1.7.6,1.7a.037.037,0,0,0,.034.023h.526C4.373-4.952,4.392-4.975,4.381-5Zm1.71-2.434-.4,1.116L5.1-7.977A.035.035,0,0,0,5.059-8H4.541c-.03,0-.046.023-.034.046L5.653-4.971a.043.043,0,0,0,.072,0l.952-2.461ZM8.236-5.52H7.371v-.686h1.2A.042.042,0,0,0,8.61-6.24v-.484a.039.039,0,0,0-.042-.034h-1.2v-.69h.865V-8H6.83a.042.042,0,0,0-.042.034v2.979a.042.042,0,0,0,.042.034H8.236Z" transform="translate(3.5 12.246)" fill="#fff" stroke="rgba(255,255,255,0)" stroke-width="1"/>
  <path id="Trazado_875" data-name="Trazado 875" d="M2.324-7.44v-.526A.039.039,0,0,0,2.282-8h-.5C1.029-8,0-7.779,0-6.476,0-5.124,1.04-4.952,1.787-4.952h.5a.039.039,0,0,0,.042-.034V-6.853H1.154v.583h.587v.088h0v.674C1.078-5.474.587-5.752.587-6.476c0-.941.785-.979,1.154-.964h.583ZM4.834-5,3.676-7.977a.043.043,0,0,0-.076,0L2.446-5c-.011.023,0,.046.038.046h.522a.038.038,0,0,0,.038-.023l.594-1.7.6,1.7a.037.037,0,0,0,.034.023H4.8C4.827-4.952,4.846-4.975,4.834-5Zm2.85-.69h.579V-7.966A.039.039,0,0,0,8.221-8h-.5a.058.058,0,0,0-.042.023L6.636-5.745,5.543-7.977A.051.051,0,0,0,5.5-8h-.51a.035.035,0,0,0-.038.034v2.979a.035.035,0,0,0,.038.034h.5a.042.042,0,0,0,.042-.034V-6.7l.827,1.6a.051.051,0,0,0,.038.023h.469A.044.044,0,0,0,6.907-5.1l.777-1.558Zm2.194.168H9.013v-.686h1.2a.042.042,0,0,0,.042-.034v-.484a.039.039,0,0,0-.042-.034h-1.2v-.69h.865V-8H8.472a.042.042,0,0,0-.042.034v2.979a.042.042,0,0,0,.042.034H9.878Z" transform="translate(2.5 17.71)" fill="#fff" stroke="rgba(255,255,255,0)" stroke-width="1"/>
</svg>
