<svg xmlns="http://www.w3.org/2000/svg" width="256" height="256" viewBox="0 0 256 256">
  <g id="gamesload" transform="translate(-7789 -3371)">
    <rect id="Rectángulo_1889" data-name="Rectángulo 1889" width="256" height="256" transform="translate(7789 3371)" fill="none"/>
    <g id="Grupo_1679" data-name="Grupo 1679" transform="translate(-30 -41.432)">
      <path id="Sustracción_4" data-name="Sustracción 4" d="M127.983,218.464a128.9,128.9,0,0,1-25.783-2.606A127.284,127.284,0,0,1,56.426,196.6,127.93,127.93,0,0,1,21.758,19.088,129.511,129.511,0,0,1,37.345.13L61.908,24.688a93.569,93.569,0,0,0-26.775,65.79c0,51.752,41.877,93.855,93.352,93.855s93.352-42.1,93.352-93.855a93.489,93.489,0,0,0-27.389-66.417L218.5,0a127.97,127.97,0,0,1-64.73,215.855,128.931,128.931,0,0,1-25.789,2.609Z" transform="translate(7819 3431.432)" fill="#e0e0e0"/>
      <path id="Unión_2" data-name="Unión 2" d="M0,44.166H20.075V0H63.238V44.166H84.318L42.159,116.439Z" transform="translate(7905.326 3489.288)" fill="#e0e0e0"/>
    </g>
  </g>
</svg>
