<svg xmlns="http://www.w3.org/2000/svg" width="256" height="256" viewBox="0 0 256 256">
  <path id="Sustracción_1" data-name="Sustracción 1" d="M128,256a128.948,128.948,0,0,1-25.8-2.6,127.3,127.3,0,0,1-45.77-19.26,128.373,128.373,0,0,1-46.375-56.316A127.358,127.358,0,0,1,2.6,153.8a129.25,129.25,0,0,1,0-51.593,127.3,127.3,0,0,1,19.26-45.77A128.373,128.373,0,0,1,78.177,10.059,127.358,127.358,0,0,1,102.2,2.6a129.25,129.25,0,0,1,51.593,0,127.3,127.3,0,0,1,45.77,19.26,128.373,128.373,0,0,1,46.375,56.316A127.356,127.356,0,0,1,253.4,102.2a129.249,129.249,0,0,1,0,51.593,127.3,127.3,0,0,1-19.26,45.77,128.373,128.373,0,0,1-56.316,46.375A127.356,127.356,0,0,1,153.8,253.4,128.948,128.948,0,0,1,128,256ZM77.44,56.32A20.5,20.5,0,0,0,56.96,76.8V183.68a16.018,16.018,0,0,0,16,16H199.68v-83.2H117.12v23.04h59.52V176H81.28V80h118.4V56.32Z" fill="#e0e0e0"/>
</svg>
