<svg xmlns="http://www.w3.org/2000/svg" width="256" height="256" viewBox="0 0 256 256">
  <g id="gamesplanet" transform="translate(-7788.967 -3371)">
    <rect id="Rect치ngulo_1889" data-name="Rect치ngulo 1889" width="255.967" height="256" transform="translate(7789 3371)" fill="none"/>
    <path id="Sustracci칩n_3" data-name="Sustracci칩n 3" d="M127.952,254.63A127.236,127.236,0,0,1,21.86,56.155,128.164,128.164,0,0,1,245.841,77.779a126.68,126.68,0,0,1-15.793,126.284,128.142,128.142,0,0,1-65.45,45.262V218.19c.7-.274,1.423-.564,2.142-.864a99.674,99.674,0,0,0,43.848-35.639,97.274,97.274,0,0,0,0-110A99.87,99.87,0,0,0,137.6,28.77V59.86c32.986,4.695,57.864,33.148,57.864,66.184a65.553,65.553,0,0,1-2.2,16.83,66.51,66.51,0,0,1-6.237,15.375A68.174,68.174,0,0,1,164.6,182.133V119.615H136.31V254.362C133.538,254.54,130.727,254.63,127.952,254.63ZM118.308,28.77A99.765,99.765,0,0,0,45.317,71.69a97.274,97.274,0,0,0,0,110,99.87,99.87,0,0,0,72.992,42.919V119.615H90.019v61.666a68.22,68.22,0,0,1-21.51-23.7A66.469,66.469,0,0,1,62.545,142.5a65.561,65.561,0,0,1-2.1-16.459c0-33.036,24.876-61.49,57.864-66.184Z" transform="translate(7789 3372)" fill="#e0e0e0"/>
  </g>
</svg>
