<svg xmlns="http://www.w3.org/2000/svg" xmlns:xlink="http://www.w3.org/1999/xlink" width="256" height="256" viewBox="0 0 256 256">
  <defs>
    <clipPath id="clip-path">
      <rect id="Rectángulo_1907" data-name="Rectángulo 1907" width="256" height="256" transform="translate(1.548)" fill="none"/>
    </clipPath>
  </defs>
  <g id="gog" transform="translate(-1.548)" clip-path="url(#clip-path)">
    <path id="Trazado_8114" data-name="Trazado 8114" d="M256,256H24.774A24.774,24.774,0,0,1,0,231.226V24.774A24.774,24.774,0,0,1,24.774,0H256a24.774,24.774,0,0,1,24.774,24.774V231.226A24.774,24.774,0,0,1,256,256ZM33.032,202.323A12.387,12.387,0,0,0,45.419,214.71H90.839V198.194H53.677a4.129,4.129,0,0,1-4.129-4.129V169.29a4.129,4.129,0,0,1,4.129-4.129H90.839V148.645H45.419a12.387,12.387,0,0,0-12.387,12.387ZM99.1,53.677A12.387,12.387,0,0,0,86.71,41.29H45.419A12.387,12.387,0,0,0,33.032,53.677v41.29a12.387,12.387,0,0,0,12.387,12.387h28.9V90.839H53.677a4.129,4.129,0,0,1-4.129-4.129V61.935a4.129,4.129,0,0,1,4.129-4.129H78.452a4.129,4.129,0,0,1,4.129,4.129v49.548a4.129,4.129,0,0,1-4.129,4.129H33.032v16.516H86.71A12.387,12.387,0,0,0,99.1,119.742Zm0,107.355v41.29a12.387,12.387,0,0,0,12.387,12.387h41.29a12.387,12.387,0,0,0,12.387-12.387v-41.29a12.387,12.387,0,0,0-12.387-12.387h-41.29A12.387,12.387,0,0,0,99.1,161.032ZM173.419,53.677A12.387,12.387,0,0,0,161.032,41.29h-41.29a12.387,12.387,0,0,0-12.387,12.387v41.29a12.387,12.387,0,0,0,12.387,12.387h41.29a12.387,12.387,0,0,0,12.387-12.387Zm74.323,0A12.387,12.387,0,0,0,235.355,41.29h-41.29a12.387,12.387,0,0,0-12.387,12.387v41.29a12.387,12.387,0,0,0,12.387,12.387h28.9V90.839H202.323a4.129,4.129,0,0,1-4.129-4.129V61.935a4.129,4.129,0,0,1,4.129-4.129H227.1a4.129,4.129,0,0,1,4.129,4.129v49.548a4.129,4.129,0,0,1-4.129,4.129H181.677v16.516h53.677a12.387,12.387,0,0,0,12.387-12.387Zm0,94.968H185.806a12.387,12.387,0,0,0-12.387,12.387V214.71h16.516V169.29a4.129,4.129,0,0,1,4.129-4.129h8.258V214.71h16.516V165.161h12.387V214.71h16.516ZM152.774,90.839H128a4.129,4.129,0,0,1-4.129-4.129V61.935A4.129,4.129,0,0,1,128,57.806h24.774a4.129,4.129,0,0,1,4.129,4.129V86.71A4.129,4.129,0,0,1,152.774,90.839Zm-33.032,74.323h24.774a4.129,4.129,0,0,1,4.129,4.129v24.774a4.129,4.129,0,0,1-4.129,4.129H119.742a4.129,4.129,0,0,1-4.129-4.129V169.29A4.129,4.129,0,0,1,119.742,165.161Z" transform="translate(-10.839 0)" fill="#e8e6e3"/>
  </g>
</svg>
