<svg xmlns="http://www.w3.org/2000/svg" width="256" height="256" viewBox="0 0 256 256">
  <g id="green_man_gaming" data-name="green man gaming" transform="translate(-6400 -3904)">
    <rect id="Rectángulo_1889" data-name="Rectángulo 1889" width="256" height="256" transform="translate(6400 3904)" fill="none"/>
    <path id="green_man_gaming-2" data-name="green man gaming" d="M127.045,256A126.175,126.175,0,0,1,37.21,218.51a128.523,128.523,0,0,1-.586-180.428A126.64,126.64,0,0,1,76.43,10.559,125.353,125.353,0,0,1,125.255.012V0H254.089V128a128.082,128.082,0,0,1-37.21,90.509A126.175,126.175,0,0,1,127.045,256Zm18.15-80.238v26.745a78.356,78.356,0,0,0,58.933-26.732Zm-95.523,0h0a78.36,78.36,0,0,0,58.946,26.745V175.762H49.672Z" transform="translate(6401.067 3904)" fill="#e0e0e0"/>
  </g>
</svg>
