<svg xmlns="http://www.w3.org/2000/svg" width="256" height="256" viewBox="0 0 256 256">
  <path id="humblebundle" d="M256,156.76c.032-.928-.16-1.408-1.248-1.387-4.981.043-9.963.021-14.945,0-.811,0-1.237.235-1.387,1.109a28.045,28.045,0,0,1-.811,3.263c-3.211,11.518-7.755,22.4-15.308,31.783-7.51,9.386-16.929,15.326-29.314,15.678-3.349.107-6.112-1.024-7.894-3.8a27.3,27.3,0,0,1-2.912-6.186c-1.771-5.418-2.176-11.092-2.347-16.744a218.152,218.152,0,0,1,1.205-28.05c1.675-16.68,4.288-33.255,7.36-49.743,5.867-31.761,13.131-63.213,21.2-94.527L211.655.129c-.373-.043-.565-.085-.747-.085Q192.94.044,175.024,0c-1.035,0-1.312.533-1.568,1.323a688.214,688.214,0,0,0-25.5,97.748c-.213,1.2-.6,1.707-1.92,1.707-9.675-.075-19.34-.053-28.994-.053-.523,0-1.035-.053-1.643-.085,0-.725-.021-1.3,0-1.877.235-4.479.512-8.959.661-13.438.459-13.854.373-27.709-1.867-41.435-1.408-8.5-3.573-16.776-7.574-24.455C98.742,4.267,85.493-2.09,68.894,1.516A62.514,62.514,0,0,0,39.261,17.246Q5.675,48.587.112,94.3a50.54,50.54,0,0,0-.032,6.1,2.267,2.267,0,0,0,.384.107c5.28.011,10.571,0,15.841.064.949.011,1.013-.6,1.227-1.3,1.472-4.724,2.731-9.546,4.5-14.185,3.744-9.79,8.811-18.824,16.577-26.077A36.1,36.1,0,0,1,62.855,48.774c3.413-.107,6.24,1.013,8,3.924a32.2,32.2,0,0,1,3.2,7.317c1.707,5.748,1.952,11.721,2.059,17.651A210.772,210.772,0,0,1,74,110.783q-2.9,21.8-6.75,43.449c-5.312,29.4-12.043,58.491-19.426,87.413-1.205,4.671-2.379,9.333-3.659,14.27l.011.011h1.813c11.392,0,22.754-.021,34.125.043a2.164,2.164,0,0,0,2.486-1.708q9.744-28.731,16.94-58.233,7.06-28.447,11.467-57.454c.181-1.2.7-1.461,1.813-1.461,9.131.043,18.263.021,27.383.021,2.027,0,2.005,0,1.856,2.027-.7,9.482-1.611,18.942-2.059,28.434-.725,15.124-.725,30.246,1.835,45.242,1.461,8.639,3.712,17.032,8,24.765,4.1,7.338,9.6,13.161,17.719,16.041,7.147,2.56,14.391,2.251,21.612.3,11.936-3.189,22.06-9.557,30.732-18.2,15.319-15.2,25.634-33.4,31.938-53.967A90.694,90.694,0,0,0,256,156.757Z" transform="translate(-0.003)" fill="#e0e0e0"/>
</svg>
