<svg xmlns="http://www.w3.org/2000/svg" width="256" height="256" viewBox="0 0 256 256">
  <g id="indiegala" transform="translate(-7789 -3371)">
    <rect id="Rect치ngulo_1889" data-name="Rect치ngulo 1889" width="256" height="256" transform="translate(7789 3371)" fill="none"/>
    <path id="Sustracci칩n_5" data-name="Sustracci칩n 5" d="M148-26a129.013,129.013,0,0,1-25.824-2.607,127.35,127.35,0,0,1-24-7.451A128.011,128.011,0,0,1,76.429-47.863a128.921,128.921,0,0,1-18.944-15.63,128.922,128.922,0,0,1-15.63-18.944A128.01,128.01,0,0,1,30.05-104.184a127.351,127.351,0,0,1-7.456-24.027A128.943,128.943,0,0,1,20-154a129.011,129.011,0,0,1,2.607-25.824,127.35,127.35,0,0,1,7.451-24,128.01,128.01,0,0,1,11.806-21.748,128.919,128.919,0,0,1,15.63-18.944,128.911,128.911,0,0,1,18.944-15.63A128.008,128.008,0,0,1,98.184-271.95a127.354,127.354,0,0,1,24.027-7.456A128.946,128.946,0,0,1,148-282a129.017,129.017,0,0,1,25.823,2.607,127.352,127.352,0,0,1,24,7.451,128.009,128.009,0,0,1,21.748,11.806,128.918,128.918,0,0,1,18.944,15.63,128.922,128.922,0,0,1,15.63,18.944,128.015,128.015,0,0,1,11.806,21.748,127.349,127.349,0,0,1,7.456,24.027A128.941,128.941,0,0,1,276-154a129.015,129.015,0,0,1-2.607,25.824,127.358,127.358,0,0,1-7.451,24,128,128,0,0,1-11.806,21.748,128.924,128.924,0,0,1-15.63,18.944,128.925,128.925,0,0,1-18.944,15.63A128.017,128.017,0,0,1,197.816-36.05a127.352,127.352,0,0,1-24.027,7.456A128.943,128.943,0,0,1,148-26ZM96.7-218.845h0a98.855,98.855,0,0,0-18.26,30.009,99.129,99.129,0,0,0-6.642,35.83,99.12,99.12,0,0,0,6.642,35.833A98.857,98.857,0,0,0,96.7-87.167V-218.845Zm65.243,4.581A60.884,60.884,0,0,0,138.1-209.45a61.049,61.049,0,0,0-19.472,13.129A61.049,61.049,0,0,0,105.5-176.849a60.883,60.883,0,0,0-4.814,23.843,60.885,60.885,0,0,0,4.814,23.848,61.063,61.063,0,0,0,13.129,19.473A61.044,61.044,0,0,0,138.1-96.557a60.876,60.876,0,0,0,23.845,4.814,60.886,60.886,0,0,0,23.847-4.814,61.06,61.06,0,0,0,19.473-13.128,61.059,61.059,0,0,0,13.128-19.473A60.884,60.884,0,0,0,223.208-153a62.015,62.015,0,0,0-.748-9.613l-1.13,1.147H176.955l-20.921,20.917H194.32v1.4a35.876,35.876,0,0,1-32.872,21.506,35.808,35.808,0,0,1-31.707-19.093l-.007-.015-.014-.025c-.011-.024-.024-.046-.039-.073l-.021-.04-.021-.04-.02-.039h0l-.06-.117v-.007h0v-.02l-.055-.109v-.011l-.011-.021v-.011l-.027-.052-.027-.053-.007-.017-.007-.016-.017-.036-.009-.017h0l-.025-.048-.007-.015-.007-.014-.066-.134-.066-.134-.024-.048-.01-.021-.01-.02a.393.393,0,0,0-.02-.04l-.031-.063-.015-.031-.015-.031v-.006l-.032-.068-.007-.015-.011-.024c-.154-.327-.3-.652-.439-.967a35.757,35.757,0,0,1-1.987-5.791,36.01,36.01,0,0,1-1.031-8.575,35.658,35.658,0,0,1,2.817-13.958,35.743,35.743,0,0,1,7.68-11.393,35.743,35.743,0,0,1,11.4-7.686,35.667,35.667,0,0,1,13.958-2.817,36.009,36.009,0,0,1,8.575,1.031,36,36,0,0,1,5.776,1.956c.2.089.416.185.639.287h.007l.042.02.029.014.03.014.021.01.022.011.047.022.019.009.037.017.037.017.015.007.021.01.051.025.048.022.012.006c.329.157.656.319.973.482.3.153.538.282.764.408l.014.007.019.011.019.01.024.012A35.836,35.836,0,0,1,189.366-176l18.05-18.05a61.781,61.781,0,0,0-9.3-8.393,61.373,61.373,0,0,0-10.878-6.366,60.769,60.769,0,0,0-25.3-5.454Z" transform="translate(7769 3653)" fill="#e0e0e0"/>
  </g>
</svg>
