<svg xmlns="http://www.w3.org/2000/svg" width="20" height="20" viewBox="0 0 20 20">
  <g id="linkedin" transform="translate(-6 -6)">
    <path id="Trazado_8095" data-name="Trazado 8095" d="M26,23.222A2.777,2.777,0,0,1,23.222,26H8.778A2.778,2.778,0,0,1,6,23.222V8.778A2.778,2.778,0,0,1,8.778,6H23.222A2.777,2.777,0,0,1,26,8.778Z" fill="#0288d1"/>
    <path id="Trazado_8096" data-name="Trazado 8096" d="M12,15.889h2.778v9.444H12Zm1.381-1.111h-.016a1.405,1.405,0,1,1,.016,0ZM25.333,25.333H22.556V20.278a1.812,1.812,0,0,0-1.773-2.054,1.593,1.593,0,0,0-1.5,1.106,4.007,4.007,0,0,0-.056,1v5H16.444V15.889h2.778v1.453a2.81,2.81,0,0,1,2.632-1.453c1.988,0,3.478,1.25,3.478,4.041v5.4Z" transform="translate(-2.667 -2.667)" fill="#fff"/>
  </g>
</svg>
