<svg id="logo" xmlns="http://www.w3.org/2000/svg" width="42" height="42" viewBox="0 0 42 42">
  <path id="Trazado_877" data-name="Trazado 877" d="M8,0H34a8,8,0,0,1,8,8V34a8,8,0,0,1-8,8H8a8,8,0,0,1-8-8V8A8,8,0,0,1,8,0Z" fill="#f74843"/>
  <path id="Trazado_876" data-name="Trazado 876" d="M3.67-4.44a2.944,2.944,0,0,0-1.18-.27.911.911,0,0,1-1-.88.926.926,0,0,1,1-.97.875.875,0,0,1,.98.84.112.112,0,0,0,.11.08H4.83c.07,0,.12-.05.11-.08A2.308,2.308,0,0,0,2.49-8,2.4,2.4,0,0,0,0-5.59,2.119,2.119,0,0,0,1.3-3.57a2.948,2.948,0,0,0,1.19.27,1.03,1.03,0,0,1,1,.97.938.938,0,0,1-1,.89H2.48V0h.01A2.328,2.328,0,0,0,4.97-2.33,2.228,2.228,0,0,0,3.67-4.44ZM11.5-.12,8.46-7.94a.113.113,0,0,0-.2,0L5.23-.12c-.03.06.01.12.1.12H6.7a.1.1,0,0,0,.1-.06L8.36-4.52,9.94-.06a.1.1,0,0,0,.09.06h1.38C11.48,0,11.53-.06,11.5-.12Zm4.49-6.39L14.94-3.58,13.38-7.94a.092.092,0,0,0-.1-.06H11.92c-.08,0-.12.06-.09.12L14.84-.05a.112.112,0,0,0,.19,0l2.5-6.46Zm5.63,5.02H19.35v-1.8h3.14a.11.11,0,0,0,.11-.09V-4.65a.1.1,0,0,0-.11-.09H19.35V-6.55h2.27V-8H17.93a.11.11,0,0,0-.11.09V-.09a.11.11,0,0,0,.11.09h3.69Z" transform="translate(9.195 19.146)" fill="#fff" stroke="rgba(255,255,255,0)" stroke-width="1"/>
  <path id="Trazado_875" data-name="Trazado 875" d="M6.1-6.53V-7.91A.1.1,0,0,0,5.99-8H4.69C2.7-8,0-7.42,0-4,0-.45,2.73,0,4.69,0h1.3A.1.1,0,0,0,6.1-.09v-4.9H3.03v1.53H4.57v.23h0v1.77C2.83-1.37,1.54-2.1,1.54-4c0-2.47,2.06-2.57,3.03-2.53H6.1ZM12.69-.12,9.65-7.94a.113.113,0,0,0-.2,0L6.42-.12c-.03.06.01.12.1.12H7.89a.1.1,0,0,0,.1-.06L9.55-4.52,11.13-.06a.1.1,0,0,0,.09.06H12.6C12.67,0,12.72-.06,12.69-.12Zm7.48-1.81h1.52V-7.91A.1.1,0,0,0,21.58-8H20.26a.152.152,0,0,0-.11.06L17.42-2.08,14.55-7.94a.133.133,0,0,0-.1-.06H13.11a.092.092,0,0,0-.1.09V-.09a.092.092,0,0,0,.1.09h1.32a.11.11,0,0,0,.11-.09V-4.58l2.17,4.2a.133.133,0,0,0,.1.06h1.23a.115.115,0,0,0,.09-.06l2.04-4.09Zm5.76.44H23.66v-1.8H26.8a.11.11,0,0,0,.11-.09V-4.65a.1.1,0,0,0-.11-.09H23.66V-6.55h2.27V-8H22.24a.11.11,0,0,0-.11.09V-.09a.11.11,0,0,0,.11.09h3.69Z" transform="translate(7.122 33.488)" fill="#fff" stroke="rgba(255,255,255,0)" stroke-width="1"/>
</svg>
