<svg xmlns="http://www.w3.org/2000/svg" width="256" height="256" viewBox="0 0 256 256">
  <g id="noctre" transform="translate(40 -0.003)">
    <rect id="Rectángulo_1887" data-name="Rectángulo 1887" width="256" height="256" transform="translate(-40 0.003)" fill="none"/>
    <path id="Trazado_8114" data-name="Trazado 8114" d="M120.141,5.4,80.166,58.345H110.3a13.531,13.531,0,0,1,10.781,21.681L32.26,197.7h98.682a13.531,13.531,0,0,0,13.511-13.531V13.548A13.511,13.511,0,0,0,120.141,5.4Z" transform="translate(32.027 0)" fill="#e0e0e0"/>
    <path id="Trazado_8115" data-name="Trazado 8115" d="M23.375,146.9,112.193,29.33H13.531A13.531,13.531,0,0,0,0,42.762V213.382a13.531,13.531,0,0,0,24.312,8.15l39.975-52.948H34.176a13.531,13.531,0,0,1-10.8-21.681Z" transform="translate(0 29.115)" fill="#e0e0e0"/>
  </g>
</svg>
