<svg xmlns="http://www.w3.org/2000/svg" width="256" height="256" viewBox="0 0 256 256">
  <g id="origin" transform="translate(-6400 -3903)">
    <rect id="Rectángulo_1889" data-name="Rectángulo 1889" width="256" height="256" transform="translate(6400 3903)" fill="none"/>
    <path id="origin-2" data-name="origin" d="M91.21.6a2.787,2.787,0,0,1,3.972,1.425c.522,1.339-.381,2.566-1.121,3.6A63.147,63.147,0,0,0,83.718,30.562a1.9,1.9,0,0,0-.974,2.451c.49.176.983.336,1.483.487a102.9,102.9,0,0,1,30.454,1.429,95.293,95.293,0,0,1,67.737,132.454,198.045,198.045,0,0,1-82.618,88.5c-1.156.538-2.825.561-3.617-.593a3.261,3.261,0,0,1,.375-4.017,62.585,62.585,0,0,0,10.055-22.6,17.831,17.831,0,0,0,.692-5.106c-.593-.769-1.573-.535-2.4-.509A95.277,95.277,0,0,1,13.2,176.488,94.248,94.248,0,0,1,.147,127.126,95.542,95.542,0,0,1,12.134,81.764,197.456,197.456,0,0,1,91.21.6Zm-.977,90.788a37.215,37.215,0,1,0,40.84,47.713c4.731-14.561-.942-31.621-13.284-40.618a37.164,37.164,0,0,0-27.558-7.1Z" transform="translate(6432.865 3902.76)" fill="#e0e0e0"/>
  </g>
</svg>
