<svg xmlns="http://www.w3.org/2000/svg" width="420" height="270" viewBox="0 0 420 270">
  <g id="textura" transform="translate(-20.178 2)">
    <g id="Polígono_70" data-name="Polígono 70" transform="translate(20.178 208)" fill="none">
      <path d="M17.5,0,35,30H0Z" stroke="none"/>
      <path d="M 17.5 1.984636306762695 L 1.741039276123047 29 L 33.25896072387695 29 L 17.5 1.984636306762695 M 17.5 0 L 35 30 L 0 30 L 17.5 0 Z" stroke="none" fill="#f74843"/>
    </g>
    <path id="Polígono_71" data-name="Polígono 71" d="M17.5,0,35,30H0Z" transform="translate(20.178 148)" fill="#970000"/>
    <path id="Polígono_72" data-name="Polígono 72" d="M17.5,0,35,30H0Z" transform="translate(55.178 208)" fill="#f74843"/>
    <g id="Polígono_73" data-name="Polígono 73" transform="translate(160.178 208)" fill="none">
      <path d="M17.5,0,35,30H0Z" stroke="none"/>
      <path d="M 17.5 1.984636306762695 L 1.741039276123047 29 L 33.25896072387695 29 L 17.5 1.984636306762695 M 17.5 0 L 35 30 L 0 30 L 17.5 0 Z" stroke="none" fill="#f74843"/>
    </g>
    <g id="Polígono_74" data-name="Polígono 74" transform="translate(230.178 208)" fill="none">
      <path d="M17.5,0,35,30H0Z" stroke="none"/>
      <path d="M 17.5 1.984636306762695 L 1.741039276123047 29 L 33.25896072387695 29 L 17.5 1.984636306762695 M 17.5 0 L 35 30 L 0 30 L 17.5 0 Z" stroke="none" fill="#f74843"/>
    </g>
    <path id="Polígono_75" data-name="Polígono 75" d="M17.5,0,35,30H0Z" transform="translate(265.178 208)" fill="#f74843"/>
    <g id="Polígono_76" data-name="Polígono 76" transform="translate(300.178 208)" fill="none">
      <path d="M17.5,0,35,30H0Z" stroke="none"/>
      <path d="M 17.5 1.984636306762695 L 1.741039276123047 29 L 33.25896072387695 29 L 17.5 1.984636306762695 M 17.5 0 L 35 30 L 0 30 L 17.5 0 Z" stroke="none" fill="#f74843"/>
    </g>
    <g id="Polígono_77" data-name="Polígono 77" transform="translate(335.178 208)" fill="none">
      <path d="M17.5,0,35,30H0Z" stroke="none"/>
      <path d="M 17.5 1.984636306762695 L 1.741039276123047 29 L 33.25896072387695 29 L 17.5 1.984636306762695 M 17.5 0 L 35 30 L 0 30 L 17.5 0 Z" stroke="none" fill="#f74843"/>
    </g>
    <g id="Polígono_78" data-name="Polígono 78" transform="translate(335.178 148)" fill="none">
      <path d="M17.5,0,35,30H0Z" stroke="none"/>
      <path d="M 17.5 1.984636306762695 L 1.741039276123047 29 L 33.25896072387695 29 L 17.5 1.984636306762695 M 17.5 0 L 35 30 L 0 30 L 17.5 0 Z" stroke="none" fill="#f74843"/>
    </g>
    <g id="Polígono_79" data-name="Polígono 79" transform="translate(370.178 148)" fill="none">
      <path d="M17.5,0,35,30H0Z" stroke="none"/>
      <path d="M 17.5 1.984636306762695 L 1.741039276123047 29 L 33.25896072387695 29 L 17.5 1.984636306762695 M 17.5 0 L 35 30 L 0 30 L 17.5 0 Z" stroke="none" fill="#f74843"/>
    </g>
    <g id="Polígono_80" data-name="Polígono 80" transform="translate(160.178 148)" fill="none">
      <path d="M17.5,0,35,30H0Z" stroke="none"/>
      <path d="M 17.5 1.984636306762695 L 1.741039276123047 29 L 33.25896072387695 29 L 17.5 1.984636306762695 M 17.5 0 L 35 30 L 0 30 L 17.5 0 Z" stroke="none" fill="#f74843"/>
    </g>
    <g id="Polígono_81" data-name="Polígono 81" transform="translate(177.677 178)" fill="none">
      <path d="M17.5,0,35,30H0Z" stroke="none"/>
      <path d="M 17.5 1.984636306762695 L 1.741039276123047 29 L 33.25896072387695 29 L 17.5 1.984636306762695 M 17.5 0 L 35 30 L 0 30 L 17.5 0 Z" stroke="none" fill="#f74843"/>
    </g>
    <path id="Polígono_82" data-name="Polígono 82" d="M17.5,0,35,30H0Z" transform="translate(212.678 178)" fill="#970000"/>
    <g id="Polígono_83" data-name="Polígono 83" transform="translate(212.678 238)" fill="none">
      <path d="M17.5,0,35,30H0Z" stroke="none"/>
      <path d="M 17.5 1.984636306762695 L 1.741039276123047 29 L 33.25896072387695 29 L 17.5 1.984636306762695 M 17.5 0 L 35 30 L 0 30 L 17.5 0 Z" stroke="none" fill="#f74843"/>
    </g>
    <g id="Polígono_84" data-name="Polígono 84" transform="translate(177.677 118)" fill="none">
      <path d="M17.5,0,35,30H0Z" stroke="none"/>
      <path d="M 17.5 1.984636306762695 L 1.741039276123047 29 L 33.25896072387695 29 L 17.5 1.984636306762695 M 17.5 0 L 35 30 L 0 30 L 17.5 0 Z" stroke="none" fill="#f74843"/>
    </g>
    <path id="Polígono_85" data-name="Polígono 85" d="M17.5,0,35,30H0Z" transform="translate(247.678 118)" fill="#970000"/>
    <g id="Polígono_86" data-name="Polígono 86" transform="translate(317.678 118)" fill="none">
      <path d="M17.5,0,35,30H0Z" stroke="none"/>
      <path d="M 17.5 1.984636306762695 L 1.741039276123047 29 L 33.25896072387695 29 L 17.5 1.984636306762695 M 17.5 0 L 35 30 L 0 30 L 17.5 0 Z" stroke="none" fill="#f74843"/>
    </g>
    <g id="Polígono_87" data-name="Polígono 87" transform="translate(335.178 88)" fill="none">
      <path d="M17.5,0,35,30H0Z" stroke="none"/>
      <path d="M 17.5 1.984636306762695 L 1.741039276123047 29 L 33.25896072387695 29 L 17.5 1.984636306762695 M 17.5 0 L 35 30 L 0 30 L 17.5 0 Z" stroke="none" fill="#f74843"/>
    </g>
    <g id="Polígono_88" data-name="Polígono 88" transform="translate(405.178 88)" fill="none">
      <path d="M17.5,0,35,30H0Z" stroke="none"/>
      <path d="M 17.5 1.984636306762695 L 1.741039276123047 29 L 33.25896072387695 29 L 17.5 1.984636306762695 M 17.5 0 L 35 30 L 0 30 L 17.5 0 Z" stroke="none" fill="#f74843"/>
    </g>
    <g id="Polígono_89" data-name="Polígono 89" transform="translate(352.678 118)" fill="none">
      <path d="M17.5,0,35,30H0Z" stroke="none"/>
      <path d="M 17.5 1.984636306762695 L 1.741039276123047 29 L 33.25896072387695 29 L 17.5 1.984636306762695 M 17.5 0 L 35 30 L 0 30 L 17.5 0 Z" stroke="none" fill="#f74843"/>
    </g>
    <g id="Polígono_90" data-name="Polígono 90" transform="translate(195.178 88)" fill="none">
      <path d="M17.5,0,35,30H0Z" stroke="none"/>
      <path d="M 17.5 1.984636306762695 L 1.741039276123047 29 L 33.25896072387695 29 L 17.5 1.984636306762695 M 17.5 0 L 35 30 L 0 30 L 17.5 0 Z" stroke="none" fill="#f74843"/>
    </g>
    <g id="Polígono_91" data-name="Polígono 91" transform="translate(230.178 88)" fill="none">
      <path d="M17.5,0,35,30H0Z" stroke="none"/>
      <path d="M 17.5 1.984636306762695 L 1.741039276123047 29 L 33.25896072387695 29 L 17.5 1.984636306762695 M 17.5 0 L 35 30 L 0 30 L 17.5 0 Z" stroke="none" fill="#f74843"/>
    </g>
    <g id="Polígono_92" data-name="Polígono 92" transform="translate(247.678 58)" fill="none">
      <path d="M17.5,0,35,30H0Z" stroke="none"/>
      <path d="M 17.5 1.984636306762695 L 1.741039276123047 29 L 33.25896072387695 29 L 17.5 1.984636306762695 M 17.5 0 L 35 30 L 0 30 L 17.5 0 Z" stroke="none" fill="#f74843"/>
    </g>
    <g id="Polígono_93" data-name="Polígono 93" transform="translate(317.678 58)" fill="none">
      <path d="M17.5,0,35,30H0Z" stroke="none"/>
      <path d="M 17.5 1.984636306762695 L 1.741039276123047 29 L 33.25896072387695 29 L 17.5 1.984636306762695 M 17.5 0 L 35 30 L 0 30 L 17.5 0 Z" stroke="none" fill="#f74843"/>
    </g>
    <path id="Polígono_94" data-name="Polígono 94" d="M17.5,0,35,30H0Z" transform="translate(370.178 28)" fill="#970000"/>
    <g id="Polígono_95" data-name="Polígono 95" transform="translate(352.678 -2)" fill="none">
      <path d="M17.5,0,35,30H0Z" stroke="none"/>
      <path d="M 17.5 1.984636306762695 L 1.741039276123047 29 L 33.25896072387695 29 L 17.5 1.984636306762695 M 17.5 0 L 35 30 L 0 30 L 17.5 0 Z" stroke="none" fill="#f74843"/>
    </g>
    <g id="Polígono_96" data-name="Polígono 96" transform="translate(405.178 28)" fill="none">
      <path d="M17.5,0,35,30H0Z" stroke="none"/>
      <path d="M 17.5 1.984636306762695 L 1.741039276123047 29 L 33.25896072387695 29 L 17.5 1.984636306762695 M 17.5 0 L 35 30 L 0 30 L 17.5 0 Z" stroke="none" fill="#f74843"/>
    </g>
    <path id="Polígono_97" data-name="Polígono 97" d="M17.5,0,35,30H0Z" transform="translate(195.178 28)" fill="#f74843"/>
    <g id="Polígono_98" data-name="Polígono 98" transform="translate(160.178 28)" fill="none">
      <path d="M17.5,0,35,30H0Z" stroke="none"/>
      <path d="M 17.5 1.984636306762695 L 1.741039276123047 29 L 33.25896072387695 29 L 17.5 1.984636306762695 M 17.5 0 L 35 30 L 0 30 L 17.5 0 Z" stroke="none" fill="#f74843"/>
    </g>
    <g id="Polígono_99" data-name="Polígono 99" transform="translate(177.677 -2)" fill="none">
      <path d="M17.5,0,35,30H0Z" stroke="none"/>
      <path d="M 17.5 1.984636306762695 L 1.741039276123047 29 L 33.25896072387695 29 L 17.5 1.984636306762695 M 17.5 0 L 35 30 L 0 30 L 17.5 0 Z" stroke="none" fill="#f74843"/>
    </g>
    <g id="Polígono_100" data-name="Polígono 100" transform="translate(72.677 178)" fill="none">
      <path d="M17.5,0,35,30H0Z" stroke="none"/>
      <path d="M 17.5 1.984636306762695 L 1.741039276123047 29 L 33.25896072387695 29 L 17.5 1.984636306762695 M 17.5 0 L 35 30 L 0 30 L 17.5 0 Z" stroke="none" fill="#f74843"/>
    </g>
    <g id="Polígono_101" data-name="Polígono 101" transform="translate(72.677 118)" fill="none">
      <path d="M17.5,0,35,30H0Z" stroke="none"/>
      <path d="M 17.5 1.984636306762695 L 1.741039276123047 29 L 33.25896072387695 29 L 17.5 1.984636306762695 M 17.5 0 L 35 30 L 0 30 L 17.5 0 Z" stroke="none" fill="#f74843"/>
    </g>
    <g id="Polígono_102" data-name="Polígono 102" transform="translate(107.677 118)" fill="none">
      <path d="M17.5,0,35,30H0Z" stroke="none"/>
      <path d="M 17.5 1.984636306762695 L 1.741039276123047 29 L 33.25896072387695 29 L 17.5 1.984636306762695 M 17.5 0 L 35 30 L 0 30 L 17.5 0 Z" stroke="none" fill="#f74843"/>
    </g>
    <g id="Polígono_103" data-name="Polígono 103" transform="translate(90.178 88)" fill="none">
      <path d="M17.5,0,35,30H0Z" stroke="none"/>
      <path d="M 17.5 1.984636306762695 L 1.741039276123047 29 L 33.25896072387695 29 L 17.5 1.984636306762695 M 17.5 0 L 35 30 L 0 30 L 17.5 0 Z" stroke="none" fill="#f74843"/>
    </g>
    <path id="Polígono_104" data-name="Polígono 104" d="M17.5,0,35,30H0Z" transform="translate(125.178 148) rotate(180)" fill="#f74843"/>
    <g id="Polígono_105" data-name="Polígono 105" transform="translate(107.677 58)" fill="none">
      <path d="M17.5,0,35,30H0Z" stroke="none"/>
      <path d="M 17.5 1.984636306762695 L 1.741039276123047 29 L 33.25896072387695 29 L 17.5 1.984636306762695 M 17.5 0 L 35 30 L 0 30 L 17.5 0 Z" stroke="none" fill="#f74843"/>
    </g>
    <g id="Polígono_106" data-name="Polígono 106" transform="translate(72.677 58)" fill="none">
      <path d="M17.5,0,35,30H0Z" stroke="none"/>
      <path d="M 17.5 1.984636306762695 L 1.741039276123047 29 L 33.25896072387695 29 L 17.5 1.984636306762695 M 17.5 0 L 35 30 L 0 30 L 17.5 0 Z" stroke="none" fill="#f74843"/>
    </g>
    <path id="Polígono_107" data-name="Polígono 107" d="M17.5,0,35,30H0Z" transform="translate(107.677 178)" fill="#970000"/>
    <g id="Polígono_108" data-name="Polígono 108" transform="translate(107.677 148)" fill="none">
      <path d="M17.5,0,35,30H0Z" stroke="none"/>
      <path d="M 17.5 1.984636306762695 L 1.741039276123047 29 L 33.25896072387695 29 L 17.5 1.984636306762695 M 17.5 0 L 35 30 L 0 30 L 17.5 0 Z" stroke="none" fill="#f74843"/>
    </g>
    <g id="Polígono_109" data-name="Polígono 109" transform="translate(55.178 208) rotate(180)" fill="none">
      <path d="M17.5,0,35,30H0Z" stroke="none"/>
      <path d="M 17.5 1.984636306762695 L 1.741039276123047 29 L 33.25896072387695 29 L 17.5 1.984636306762695 M 17.5 0 L 35 30 L 0 30 L 17.5 0 Z" stroke="none" fill="#f74843"/>
    </g>
    <g id="Polígono_110" data-name="Polígono 110" transform="translate(72.677 178) rotate(180)" fill="none">
      <path d="M17.5,0,35,30H0Z" stroke="none"/>
      <path d="M 17.5 1.984636306762695 L 1.741039276123047 29 L 33.25896072387695 29 L 17.5 1.984636306762695 M 17.5 0 L 35 30 L 0 30 L 17.5 0 Z" stroke="none" fill="#f74843"/>
    </g>
    <g id="Polígono_111" data-name="Polígono 111" transform="translate(107.677 178) rotate(180)" fill="none">
      <path d="M17.5,0,35,30H0Z" stroke="none"/>
      <path d="M 17.5 1.984636306762695 L 1.741039276123047 29 L 33.25896072387695 29 L 17.5 1.984636306762695 M 17.5 0 L 35 30 L 0 30 L 17.5 0 Z" stroke="none" fill="#f74843"/>
    </g>
    <g id="Polígono_112" data-name="Polígono 112" transform="translate(177.677 238) rotate(180)" fill="none">
      <path d="M17.5,0,35,30H0Z" stroke="none"/>
      <path d="M 17.5 1.984636306762695 L 1.741039276123047 29 L 33.25896072387695 29 L 17.5 1.984636306762695 M 17.5 0 L 35 30 L 0 30 L 17.5 0 Z" stroke="none" fill="#f74843"/>
    </g>
    <g id="Polígono_113" data-name="Polígono 113" transform="translate(177.677 178) rotate(180)" fill="none">
      <path d="M17.5,0,35,30H0Z" stroke="none"/>
      <path d="M 17.5 1.984636306762695 L 1.741039276123047 29 L 33.25896072387695 29 L 17.5 1.984636306762695 M 17.5 0 L 35 30 L 0 30 L 17.5 0 Z" stroke="none" fill="#f74843"/>
    </g>
    <path id="Polígono_114" data-name="Polígono 114" d="M17.5,0,35,30H0Z" transform="translate(212.678 178) rotate(180)" fill="#f74843"/>
    <g id="Polígono_115" data-name="Polígono 115" transform="translate(282.678 178) rotate(180)" fill="none">
      <path d="M17.5,0,35,30H0Z" stroke="none"/>
      <path d="M 17.5 1.984636306762695 L 1.741039276123047 29 L 33.25896072387695 29 L 17.5 1.984636306762695 M 17.5 0 L 35 30 L 0 30 L 17.5 0 Z" stroke="none" fill="#f74843"/>
    </g>
    <path id="Polígono_116" data-name="Polígono 116" d="M17.5,0,35,30H0Z" transform="translate(212.678 118) rotate(180)" fill="#970000"/>
    <path id="Polígono_117" data-name="Polígono 117" d="M17.5,0,35,30H0Z" transform="translate(317.678 118) rotate(180)" fill="#f74843"/>
    <g id="Polígono_118" data-name="Polígono 118" transform="translate(387.678 118) rotate(180)" fill="none">
      <path d="M17.5,0,35,30H0Z" stroke="none"/>
      <path d="M 17.5 1.984636306762695 L 1.741039276123047 29 L 33.25896072387695 29 L 17.5 1.984636306762695 M 17.5 0 L 35 30 L 0 30 L 17.5 0 Z" stroke="none" fill="#f74843"/>
    </g>
    <path id="Polígono_119" data-name="Polígono 119" d="M17.5,0,35,30H0Z" transform="translate(212.678 58) rotate(180)" fill="#970000"/>
    <g id="Polígono_120" data-name="Polígono 120" transform="translate(247.678 58) rotate(180)" fill="none">
      <path d="M17.5,0,35,30H0Z" stroke="none"/>
      <path d="M 17.5 1.984636306762695 L 1.741039276123047 29 L 33.25896072387695 29 L 17.5 1.984636306762695 M 17.5 0 L 35 30 L 0 30 L 17.5 0 Z" stroke="none" fill="#f74843"/>
    </g>
    <g id="Polígono_121" data-name="Polígono 121" transform="translate(230.178 88) rotate(180)" fill="none">
      <path d="M17.5,0,35,30H0Z" stroke="none"/>
      <path d="M 17.5 1.984636306762695 L 1.741039276123047 29 L 33.25896072387695 29 L 17.5 1.984636306762695 M 17.5 0 L 35 30 L 0 30 L 17.5 0 Z" stroke="none" fill="#f74843"/>
    </g>
    <g id="Polígono_122" data-name="Polígono 122" transform="translate(195.178 208) rotate(180)" fill="none">
      <path d="M17.5,0,35,30H0Z" stroke="none"/>
      <path d="M 17.5 1.984636306762695 L 1.741039276123047 29 L 33.25896072387695 29 L 17.5 1.984636306762695 M 17.5 0 L 35 30 L 0 30 L 17.5 0 Z" stroke="none" fill="#f74843"/>
    </g>
    <g id="Polígono_123" data-name="Polígono 123" transform="translate(265.178 208) rotate(180)" fill="none">
      <path d="M17.5,0,35,30H0Z" stroke="none"/>
      <path d="M 17.5 1.984636306762695 L 1.741039276123047 29 L 33.25896072387695 29 L 17.5 1.984636306762695 M 17.5 0 L 35 30 L 0 30 L 17.5 0 Z" stroke="none" fill="#f74843"/>
    </g>
    <g id="Polígono_124" data-name="Polígono 124" transform="translate(300.178 208) rotate(180)" fill="none">
      <path d="M17.5,0,35,30H0Z" stroke="none"/>
      <path d="M 17.5 1.984636306762695 L 1.741039276123047 29 L 33.25896072387695 29 L 17.5 1.984636306762695 M 17.5 0 L 35 30 L 0 30 L 17.5 0 Z" stroke="none" fill="#f74843"/>
    </g>
    <g id="Polígono_125" data-name="Polígono 125" transform="translate(335.178 208) rotate(180)" fill="none">
      <path d="M17.5,0,35,30H0Z" stroke="none"/>
      <path d="M 17.5 1.984636306762695 L 1.741039276123047 29 L 33.25896072387695 29 L 17.5 1.984636306762695 M 17.5 0 L 35 30 L 0 30 L 17.5 0 Z" stroke="none" fill="#f74843"/>
    </g>
    <g id="Polígono_126" data-name="Polígono 126" transform="translate(195.178 148) rotate(180)" fill="none">
      <path d="M17.5,0,35,30H0Z" stroke="none"/>
      <path d="M 17.5 1.984636306762695 L 1.741039276123047 29 L 33.25896072387695 29 L 17.5 1.984636306762695 M 17.5 0 L 35 30 L 0 30 L 17.5 0 Z" stroke="none" fill="#f74843"/>
    </g>
    <g id="Polígono_127" data-name="Polígono 127" transform="translate(265.178 148) rotate(180)" fill="none">
      <path d="M17.5,0,35,30H0Z" stroke="none"/>
      <path d="M 17.5 1.984636306762695 L 1.741039276123047 29 L 33.25896072387695 29 L 17.5 1.984636306762695 M 17.5 0 L 35 30 L 0 30 L 17.5 0 Z" stroke="none" fill="#f74843"/>
    </g>
    <g id="Polígono_128" data-name="Polígono 128" transform="translate(300.178 148) rotate(180)" fill="none">
      <path d="M17.5,0,35,30H0Z" stroke="none"/>
      <path d="M 17.5 1.984636306762695 L 1.741039276123047 29 L 33.25896072387695 29 L 17.5 1.984636306762695 M 17.5 0 L 35 30 L 0 30 L 17.5 0 Z" stroke="none" fill="#f74843"/>
    </g>
    <path id="Polígono_129" data-name="Polígono 129" d="M17.5,0,35,30H0Z" transform="translate(370.178 148) rotate(180)" fill="#f74843"/>
    <g id="Polígono_130" data-name="Polígono 130" transform="translate(370.178 88) rotate(180)" fill="none">
      <path d="M17.5,0,35,30H0Z" stroke="none"/>
      <path d="M 17.5 1.984636306762695 L 1.741039276123047 29 L 33.25896072387695 29 L 17.5 1.984636306762695 M 17.5 0 L 35 30 L 0 30 L 17.5 0 Z" stroke="none" fill="#f74843"/>
    </g>
    <path id="Polígono_131" data-name="Polígono 131" d="M17.5,0,35,30H0Z" transform="translate(352.678 58) rotate(180)" fill="#970000"/>
    <g id="Polígono_132" data-name="Polígono 132" transform="translate(405.178 148) rotate(180)" fill="none">
      <path d="M17.5,0,35,30H0Z" stroke="none"/>
      <path d="M 17.5 1.984636306762695 L 1.741039276123047 29 L 33.25896072387695 29 L 17.5 1.984636306762695 M 17.5 0 L 35 30 L 0 30 L 17.5 0 Z" stroke="none" fill="#f74843"/>
    </g>
    <g id="Polígono_133" data-name="Polígono 133" transform="translate(387.678 178) rotate(180)" fill="none">
      <path d="M17.5,0,35,30H0Z" stroke="none"/>
      <path d="M 17.5 1.984636306762695 L 1.741039276123047 29 L 33.25896072387695 29 L 17.5 1.984636306762695 M 17.5 0 L 35 30 L 0 30 L 17.5 0 Z" stroke="none" fill="#f74843"/>
    </g>
    <g id="Polígono_134" data-name="Polígono 134" transform="translate(212.678 238) rotate(180)" fill="none">
      <path d="M17.5,0,35,30H0Z" stroke="none"/>
      <path d="M 17.5 1.984636306762695 L 1.741039276123047 29 L 33.25896072387695 29 L 17.5 1.984636306762695 M 17.5 0 L 35 30 L 0 30 L 17.5 0 Z" stroke="none" fill="#f74843"/>
    </g>
    <g id="Polígono_135" data-name="Polígono 135" transform="translate(247.678 238) rotate(180)" fill="none">
      <path d="M17.5,0,35,30H0Z" stroke="none"/>
      <path d="M 17.5 1.984636306762695 L 1.741039276123047 29 L 33.25896072387695 29 L 17.5 1.984636306762695 M 17.5 0 L 35 30 L 0 30 L 17.5 0 Z" stroke="none" fill="#f74843"/>
    </g>
    <path id="Polígono_136" data-name="Polígono 136" d="M17.5,0,35,30H0Z" transform="translate(387.678 238) rotate(180)" fill="#970000"/>
    <g id="Polígono_137" data-name="Polígono 137" transform="translate(387.678 208) rotate(180)" fill="none">
      <path d="M17.5,0,35,30H0Z" stroke="none"/>
      <path d="M 17.5 1.984636306762695 L 1.741039276123047 29 L 33.25896072387695 29 L 17.5 1.984636306762695 M 17.5 0 L 35 30 L 0 30 L 17.5 0 Z" stroke="none" fill="#f74843"/>
    </g>
    <g id="Polígono_138" data-name="Polígono 138" transform="translate(300.178 268) rotate(180)" fill="none">
      <path d="M17.5,0,35,30H0Z" stroke="none"/>
      <path d="M 17.5 1.984636306762695 L 1.741039276123047 29 L 33.25896072387695 29 L 17.5 1.984636306762695 M 17.5 0 L 35 30 L 0 30 L 17.5 0 Z" stroke="none" fill="#f74843"/>
    </g>
  </g>
</svg>
