<svg xmlns="http://www.w3.org/2000/svg" width="256" height="256" viewBox="0 0 256 256">
  <path id="uplay" d="M132,4C86.176,4,60.915,18.317,42.24,32.32,21.754,47.686,6,73.99,5.344,75.1L16.973,82.01A100.787,100.787,0,0,0,4,132a127.642,127.642,0,0,0,3.3,28.461c.1.5.122,1.011.224,1.5l.154-.032A128.089,128.089,0,0,0,122.522,259.52c3.091.307,6.189.48,9.28.48v-.013c.07,0,.134.013.2.013A128,128,0,0,0,132,4Zm-6.451,192a38.4,38.4,0,0,1,.051-76.8c11.245,0,19.962,4.461,26.637,13.645a33.282,33.282,0,0,1-.87,37.606l10.368,7.341c-8.243,12.141-22.47,17.818-35,18.144C126.336,195.949,125.952,196,125.549,196Zm51.206-71.885c-14.547-22-37.946-36.646-63.827-36.646C70.509,87.469,36,121.862,36,164.134c0,2.906.211,5.7.435,8.493l-4.691,1.632A108.187,108.187,0,0,1,26.1,156.544c-4.064-21.581,1.568-45.011,14.97-61.517C55.424,77.344,77.875,68,105.99,68c38.522,0,67.078,26.451,74.95,54.656ZM132,240.8c-2.624,0-5.19-.211-7.77-.4C89.5,237.024,55.2,210.554,55.2,164.134a57.524,57.524,0,0,1,37.517-53.76A57.553,57.553,0,0,0,125.5,215.194v.006h.1c1.862,0,3.763-.122,5.677-.294A77.122,77.122,0,0,0,202.4,138c0-42.189-39.6-89.2-96.41-89.2C73.747,48.8,52.134,59.194,38,70.957l-3.84-3.52c5.421-6.784,12.224-14.227,19.6-19.757C70.714,34.963,91.923,23.2,132,23.2a108.8,108.8,0,0,1,0,217.6Z" transform="translate(-4 -4)" fill="#e0e0e0"/>
</svg>
