<svg xmlns="http://www.w3.org/2000/svg" width="256" height="256" viewBox="0 0 256 256">
  <g id="wingamestore" transform="translate(-7723 -3065)">
    <rect id="Rect치ngulo_1886" data-name="Rect치ngulo 1886" width="256" height="256" transform="translate(7723 3065)" fill="none"/>
    <g id="Sustracci칩n_1" data-name="Sustracci칩n 1" transform="translate(7723 3090)" fill="#fff">
      <path d="M 183.3921356201172 205.5991363525391 C 177.9801635742188 205.5991363525391 172.5846405029297 204.9969329833984 167.3554077148438 203.8092651367188 C 162.2691650390625 202.6540679931641 157.2978973388672 200.9359283447266 152.5797729492188 198.7025909423828 C 147.9468383789063 196.5095672607422 143.5317077636719 193.807861328125 139.4569702148438 190.6725006103516 C 135.4114990234375 187.5597686767578 131.6850280761719 184.0070343017578 128.3810729980469 180.1129913330078 L 127.9998016357422 179.6636352539063 L 127.618537902832 180.113037109375 C 124.3149032592773 184.0069580078125 120.5886001586914 187.5596923828125 116.5431671142578 190.6725006103516 C 112.4687347412109 193.8077697753906 108.0536651611328 196.5094604492188 103.4206314086914 198.7025909423828 C 98.70263671875 200.9358978271484 93.73139953613281 202.6540374755859 88.64506530761719 203.8092651367188 C 83.41587066650391 204.9969329833984 78.02037048339844 205.5991363525391 72.6083984375 205.5991363525391 C 62.87360000610352 205.5991363525391 53.43030166625977 203.6926574707031 44.54076766967773 199.9326629638672 C 35.95429992675781 196.3009338378906 28.24266815185547 191.1015930175781 21.62010192871094 184.4790649414063 C 14.99763488769531 177.8565673828125 9.798301696777344 170.1448974609375 6.166468143463135 161.5583648681641 C 2.406468391418457 152.6689300537109 0.5000016093254089 143.2256011962891 0.5000016093254089 133.49072265625 C 0.5000016093254089 132.5689239501953 0.5177683234214783 131.6308288574219 0.5527682900428772 130.7024688720703 L 0.5537349581718445 130.6772918701172 L 0.5521349906921387 130.6521606445313 C 0.5175349712371826 130.1035919189453 0.5000016093254089 129.5476684570313 0.5000016093254089 128.9997253417969 L 0.5000016093254089 27.19893074035645 C 0.5000016093254089 23.7292308807373 1.179401636123657 20.36372947692871 2.519368410110474 17.19589614868164 C 3.813701629638672 14.13569641113281 5.666735172271729 11.38729667663574 8.027068138122559 9.026996612548828 C 10.38740158081055 6.666629791259766 13.13583469390869 4.813563346862793 16.19596862792969 3.519296646118164 C 19.36386871337891 2.179330110549927 22.72940254211426 1.499930024147034 26.19903564453125 1.499930024147034 C 29.66866874694824 1.499930024147034 33.0341682434082 2.179330110549927 36.20206832885742 3.519296646118164 C 39.26210021972656 4.813529968261719 42.01050186157227 6.66659688949585 44.37100219726563 9.026996612548828 C 46.73130035400391 11.38729667663574 48.58433532714844 14.13572978973389 49.87863540649414 17.19586372375488 C 51.21860122680664 20.36379623413086 51.89803314208984 23.72929763793945 51.89803314208984 27.19893074035645 L 51.89803314208984 63.73352813720703 L 51.89803314208984 128.9997253417969 C 51.89803314208984 142.8963012695313 63.20333480834961 154.2019958496094 77.09940338134766 154.2019958496094 C 90.99549865722656 154.2019958496094 102.3008041381836 142.8963012695313 102.3008041381836 128.9997253417969 L 102.3008041381836 54.14582824707031 C 102.3008041381836 50.67623138427734 102.9802017211914 47.31076431274414 104.3201675415039 44.14292907714844 C 105.6144332885742 41.0828971862793 107.4674987792969 38.33459854125977 109.8278350830078 35.97433090209961 C 112.1882019042969 33.61413192749023 114.936637878418 31.76119613647461 117.9967651367188 30.46696281433105 C 121.1647338867188 29.12709617614746 124.5302352905273 28.44772911071777 127.9998016357422 28.44772911071777 C 131.4693756103516 28.44772911071777 134.8348693847656 29.12709617614746 138.0028381347656 30.46696281433105 C 141.0629730224609 31.76119613647461 143.8114013671875 33.61413192749023 146.1717681884766 35.97433090209961 C 148.5321044921875 38.33459854125977 150.3851623535156 41.0828971862793 151.6794281005859 44.14289855957031 C 153.0194091796875 47.31069564819336 153.6988067626953 50.67616271972656 153.6988067626953 54.14582824707031 L 153.6988067626953 66.99059295654297 L 153.6988067626953 128.9997253417969 C 153.6988067626953 142.8963012695313 165.0041046142578 154.2019958496094 178.9002075195313 154.2019958496094 C 192.7967987060547 154.2019958496094 204.1025390625 142.8963012695313 204.1025390625 128.9997253417969 L 204.1025390625 27.19893074035645 C 204.1025390625 23.7292308807373 204.7819366455078 20.36372947692871 206.1219024658203 17.19589614868164 C 207.4161987304688 14.13569641113281 209.2692413330078 11.38729667663574 211.6296081542969 9.026996612548828 C 213.9899291992188 6.66666316986084 216.7383422851563 4.813596725463867 219.7984619140625 3.519296646118164 C 222.9663696289063 2.179330110549927 226.3318634033203 1.499930024147034 229.8014984130859 1.499930024147034 C 233.2711029052734 1.499930024147034 236.6365661621094 2.179330110549927 239.8043670654297 3.519296646118164 C 242.8643646240234 4.813529968261719 245.6126708984375 6.66659688949585 247.9730072021484 9.026963233947754 C 250.3331756591797 11.38726329803467 252.1861419677734 14.13569641113281 253.4804077148438 17.19586372375488 C 254.8202667236328 20.3638973236084 255.4996337890625 23.72939682006836 255.4996337890625 27.19893074035645 L 255.4996337890625 128.9997253417969 C 255.4996337890625 129.5466003417969 255.4821014404297 130.1026000976563 255.4475402832031 130.6522369384766 L 255.4459381103516 130.6773376464844 L 255.4468994140625 130.7024230957031 C 255.4819030761719 131.6325225830078 255.4996337890625 132.5706329345703 255.4996337890625 133.49072265625 C 255.4996337890625 143.2254638671875 253.5932006835938 152.6687927246094 249.8332977294922 161.5583648681641 C 246.2016296386719 170.1447906494141 241.0023651123047 177.8564300537109 234.3799743652344 184.4790954589844 C 227.757568359375 191.1015319824219 220.0460662841797 196.3008575439453 211.4596405029297 199.9326629638672 C 202.5701751708984 203.6926574707031 193.1269073486328 205.5991363525391 183.3921356201172 205.5991363525391 Z" stroke="none"/>
      <path d="M 183.3921356201172 205.0991363525391 C 193.0596313476563 205.0991363525391 202.4373626708984 203.2059326171875 211.2648315429688 199.47216796875 C 219.7916717529297 195.8656005859375 227.4497985839844 190.7022247314453 234.0263977050781 184.1255340576172 C 240.6030731201172 177.5486602783203 245.7663421630859 169.8904266357422 249.372802734375 161.3636016845703 C 253.1065063476563 152.5359649658203 254.9996337890625 143.158203125 254.9996337890625 133.49072265625 C 254.9996337890625 132.5768585205078 254.9819946289063 131.6450958251953 254.9472351074219 130.7212371826172 L 254.9453735351563 130.6709899902344 L 254.9485015869141 130.6208343505859 C 254.9824371337891 130.0816040039063 254.9996337890625 129.5361938476563 254.9996337890625 128.9997253417969 L 254.9996337890625 27.19893074035645 C 254.9996337890625 23.79669761657715 254.3335723876953 20.49669647216797 253.0198974609375 17.3906307220459 C 251.7508392333984 14.39002990722656 249.9338684082031 11.69506359100342 247.6194610595703 9.38053035736084 C 245.3049011230469 7.065896511077881 242.6100006103516 5.24882984161377 239.6096038818359 3.979796648025513 C 236.5037384033203 2.66606330871582 233.2038421630859 1.999930024147034 229.8014984130859 1.999930024147034 C 226.399169921875 1.999930024147034 223.0991973876953 2.66606330871582 219.9932403564453 3.979796648025513 C 216.9927062988281 5.248896598815918 214.2977294921875 7.065963268280029 211.9831390380859 9.38053035736084 C 209.6685638427734 11.69509696960449 207.8515014648438 14.39006328582764 206.5823974609375 17.39066314697266 C 205.2686614990234 20.49653053283691 204.6025390625 23.79652976989746 204.6025390625 27.19893074035645 L 204.6025390625 128.9997253417969 C 204.6025390625 143.1719970703125 193.0724945068359 154.7019958496094 178.9002075195313 154.7019958496094 C 164.7284088134766 154.7019958496094 153.1988067626953 143.1719970703125 153.1988067626953 128.9997253417969 L 153.1988067626953 66.99059295654297 L 153.1988067626953 54.14582824707031 C 153.1988067626953 50.74346160888672 152.5326690673828 47.44353103637695 151.2189331054688 44.33769607543945 C 149.9498748779297 41.33726501464844 148.1327972412109 38.64239501953125 145.8182373046875 36.32789611816406 C 143.5036010742188 34.01346206665039 140.8086090087891 32.19649505615234 137.8080749511719 30.92746353149414 C 134.7020721435547 29.61379623413086 131.402099609375 28.94772911071777 127.9998016357422 28.94772911071777 C 124.5975036621094 28.94772911071777 121.2975387573242 29.61379623413086 118.191535949707 30.9274959564209 C 115.1910018920898 32.19649505615234 112.4960021972656 34.01346206665039 110.1814041137695 36.32789611816406 C 107.8667984008789 38.64239501953125 106.0497360229492 41.33726501464844 104.7806701660156 44.33769607543945 C 103.4669342041016 47.44359588623047 102.8008041381836 50.7435302734375 102.8008041381836 54.14582824707031 L 102.8008041381836 128.9997253417969 C 102.8008041381836 143.1719970703125 91.27120208740234 154.7019958496094 77.09940338134766 154.7019958496094 C 62.92763519287109 154.7019958496094 51.39803314208984 143.1719970703125 51.39803314208984 128.9997253417969 L 51.39803314208984 63.73352813720703 L 51.39803314208984 27.19893074035645 C 51.39803314208984 23.79656410217285 50.73190307617188 20.49659729003906 49.41813659667969 17.3906307220459 C 48.1490364074707 14.39009666442871 46.33200073242188 11.69509696960449 44.01743316650391 9.38053035736084 C 41.70273590087891 7.065896511077881 39.00773620605469 5.24882984161377 36.00726699829102 3.979796648025513 C 32.90133666992188 2.66606330871582 29.60136795043945 1.999930024147034 26.19903564453125 1.999930024147034 C 22.79666900634766 1.999930024147034 19.49670219421387 2.66606330871582 16.3907356262207 3.979796648025513 C 13.39020156860352 5.248863220214844 10.6952018737793 7.065929889678955 8.38060188293457 9.38053035736084 C 6.066068172454834 11.69509696960449 4.249001502990723 14.39006328582764 2.979868412017822 17.39066314697266 C 1.66613495349884 20.49653053283691 1.000001668930054 23.79652976989746 1.000001668930054 27.19893074035645 L 1.000001668930054 128.9997253417969 C 1.000001668930054 129.5372009277344 1.017201662063599 130.0825653076172 1.051168322563171 130.6206970214844 L 1.054334998130798 130.6709594726563 L 1.052434921264648 130.7213287353516 C 1.017634987831116 131.6434326171875 1.000001668930054 132.5751953125 1.000001668930054 133.49072265625 C 1.000001668930054 143.1583251953125 2.893201589584351 152.5361022949219 6.626968383789063 161.3635559082031 C 10.23356819152832 169.8905334472656 15.39693450927734 177.5487670898438 21.97363471984863 184.1255340576172 C 28.55046844482422 190.7022705078125 36.20866775512695 195.8656311035156 44.73556900024414 199.47216796875 C 53.56310272216797 203.2059326171875 62.94086837768555 205.0991363525391 72.6083984375 205.0991363525391 C 77.98316955566406 205.0991363525391 83.34140014648438 204.5010986328125 88.53433227539063 203.3216705322266 C 93.58513641357422 202.1745300292969 98.52163696289063 200.4683990478516 103.2067031860352 198.2507019042969 C 107.8075714111328 196.0727691650391 112.1920013427734 193.3898010253906 116.2382354736328 190.2762298583984 C 120.2557983398438 187.1848907470703 123.9563980102539 183.6566619873047 127.2372665405273 179.7895660400391 L 127.9997711181641 178.8907928466797 L 128.7622985839844 179.7895355224609 C 132.0435333251953 183.6567230224609 135.7443084716797 187.1849670410156 139.7619018554688 190.2762298583984 C 143.8083953857422 193.389892578125 148.1929321289063 196.0728607177734 152.7936706542969 198.2506561279297 C 157.4788970947266 200.4684295654297 162.4154357910156 202.174560546875 167.4661407470703 203.3216705322266 C 172.6591033935547 204.5010986328125 178.0173645019531 205.0991363525391 183.3921356201172 205.0991363525391 M 183.3921356201172 206.0991363525391 C 177.9430389404297 206.0991363525391 172.5102386474609 205.4927673339844 167.2446746826172 204.2968292236328 C 162.1229705810547 203.1335906982422 157.1170043945313 201.4035034179688 152.3658294677734 199.1545257568359 C 147.7007293701172 196.9462585449219 143.2550048828125 194.225830078125 139.1520690917969 191.0687561035156 C 135.0785675048828 187.9344635009766 131.3264312744141 184.3572235107422 127.9998016357422 180.4364929199219 C 124.6724014282227 184.3584594726563 120.9198989868164 187.9356689453125 116.8480682373047 191.0687561035156 C 112.7453384399414 194.2257995605469 108.2996368408203 196.9462280273438 103.6345672607422 199.1545257568359 C 98.88353729248047 201.4034576416016 93.87760162353516 203.1335601806641 88.75579833984375 204.2968292236328 C 83.49026489257813 205.4927673339844 78.05753326416016 206.0991363525391 72.6083984375 206.0991363525391 C 62.80630111694336 206.0991363525391 53.29747009277344 204.1793670654297 44.34600067138672 200.3931579589844 C 35.69980239868164 196.7361602783203 27.93476867675781 191.5007934570313 21.26653480529785 184.8326263427734 C 14.59826850891113 178.1642913818359 9.362968444824219 170.3992309570313 5.705968379974365 161.7531280517578 C 1.919734954833984 152.8016662597656 1.635742137295892e-06 143.2928314208984 1.635742137295892e-06 133.49072265625 C 1.635742137295892e-06 132.5629272460938 0.01786830276250839 131.6184997558594 0.0531349703669548 130.6836242675781 C 0.01786830276250839 130.1244964599609 1.635742137295892e-06 129.5578918457031 1.635742137295892e-06 128.9997253417969 L 1.635742137295892e-06 27.19893074035645 C 1.635742137295892e-06 23.66206359863281 0.6926683187484741 20.23099708557129 2.058868408203125 17.00109672546387 C 3.378401517868042 13.8813304901123 5.267435073852539 11.07949638366699 7.673501491546631 8.673430442810059 C 10.07963466644287 6.26729679107666 12.88150119781494 4.378263473510742 16.00120162963867 3.058796644210815 C 19.2310676574707 1.692630052566528 22.66216850280762 0.9999300241470337 26.19903564453125 0.9999300241470337 C 29.73590087890625 0.9999300241470337 33.16696929931641 1.692630052566528 36.39683532714844 3.058796644210815 C 39.51653671264648 4.378263473510742 42.31836700439453 6.267330169677734 44.72453308105469 8.673430442810059 C 47.13059997558594 11.07949638366699 49.01963424682617 13.8813304901123 50.33913421630859 17.00109672546387 C 51.7053337097168 20.23099708557129 52.39803314208984 23.66206359863281 52.39803314208984 27.19893074035645 L 52.39803314208984 63.73352813720703 L 52.39803314208984 128.9997253417969 C 52.39803314208984 142.6205902099609 63.47903442382813 153.7019958496094 77.09940338134766 153.7019958496094 C 90.71980285644531 153.7019958496094 101.8008041381836 142.6205902099609 101.8008041381836 128.9997253417969 L 101.8008041381836 54.14582824707031 C 101.8008041381836 50.60896301269531 102.4934997558594 47.17796325683594 103.8596649169922 43.9481315612793 C 105.1791687011719 40.82846450805664 107.0682373046875 38.02672958374023 109.4743041992188 35.62076187133789 C 111.8804016113281 33.21482849121094 114.6822357177734 31.32589721679688 117.802001953125 30.0064640045166 C 121.0318984985352 28.64039611816406 124.4629364013672 27.94772911071777 127.9998016357422 27.94772911071777 C 131.5366668701172 27.94772911071777 134.9676971435547 28.64039611816406 138.1976013183594 30.0064640045166 C 141.3173675537109 31.32589721679688 144.1192016601563 33.21482849121094 146.5252990722656 35.62076187133789 C 148.9313659667969 38.02672958374023 150.8204345703125 40.82846450805664 152.1399383544922 43.9481315612793 C 153.5061340332031 47.17796325683594 154.1988067626953 50.60896301269531 154.1988067626953 54.14582824707031 L 154.1988067626953 66.99059295654297 L 154.1988067626953 128.9997253417969 C 154.1988067626953 142.6205902099609 165.2798004150391 153.7019958496094 178.9002075195313 153.7019958496094 C 192.5211334228516 153.7019958496094 203.6025390625 142.6205902099609 203.6025390625 128.9997253417969 L 203.6025390625 27.19893074035645 C 203.6025390625 23.66206359863281 204.2951965332031 20.23099708557129 205.6614074707031 17.00109672546387 C 206.9808959960938 13.8813304901123 208.8699340820313 11.07949638366699 211.2760314941406 8.673430442810059 C 213.68212890625 6.267330169677734 216.4839630126953 4.378296852111816 219.6036987304688 3.058796644210815 C 222.8335723876953 1.692630052566528 226.2646331787109 0.9999300241470337 229.8014984130859 0.9999300241470337 C 233.3383636474609 0.9999300241470337 236.7693634033203 1.692630052566528 239.9991607666016 3.058796644210815 C 243.1188659667969 4.378296852111816 245.9205627441406 6.267363548278809 248.3265686035156 8.673430442810059 C 250.7324676513672 11.07946300506592 252.6213989257813 13.88126373291016 253.9409027099609 17.00109672546387 C 255.3069610595703 20.23106384277344 255.9996337890625 23.66209602355957 255.9996337890625 27.19893074035645 L 255.9996337890625 128.9997253417969 C 255.9996337890625 129.5576019287109 255.9817352294922 130.1241302490234 255.946533203125 130.6836242675781 C 255.9817352294922 131.6190338134766 255.9996337890625 132.5634613037109 255.9996337890625 133.49072265625 C 255.9996337890625 143.2928009033203 254.0798950195313 152.8016357421875 250.2938079833984 161.7531280517578 C 246.6369018554688 170.3992309570313 241.4016418457031 178.1642913818359 234.7335357666016 184.8326263427734 C 228.0654754638672 191.5007629394531 220.300537109375 196.7361297607422 211.6544036865234 200.3931579589844 C 202.7030029296875 204.1793670654297 193.1941986083984 206.0991363525391 183.3921356201172 206.0991363525391 Z" stroke="none" fill="#707070"/>
    </g>
  </g>
</svg>
